<svg width="42" height="41" viewBox="0 0 42 41" fill="none" xmlns="http://www.w3.org/2000/svg">
<path d="M7.4375 3.30467e-06H34.5625C35.5395 -0.000918617 36.5071 0.191064 37.4098 0.564963C38.3126 0.938861 39.1328 1.48734 39.8237 2.17899C40.5144 2.87067 41.0624 3.69193 41.4358 4.5958C41.8093 5.49969 42.0009 6.46843 42 7.44658V33.5534C42.0009 34.5316 41.8093 35.5004 41.4358 36.4041C41.0624 37.3081 40.5144 38.1293 39.8237 38.821C39.1328 39.5126 38.3126 40.0612 37.4098 40.4351C36.5071 40.809 35.5395 41.0009 34.5625 41H7.4375C6.46053 41.0009 5.49297 40.809 4.5902 40.4351C3.68743 40.0612 2.86717 39.5126 2.17634 38.821C1.48552 38.1293 0.937716 37.3081 0.564273 36.4041C0.19083 35.5004 -0.000917496 34.5316 3.30064e-06 33.5534V7.44658C-0.000917496 6.46843 0.19083 5.49969 0.564273 4.5958C0.937716 3.69193 1.48552 2.87067 2.17634 2.17899C2.86717 1.48734 3.68743 0.938861 4.5902 0.564963C5.49297 0.191064 6.46053 -0.000918617 7.4375 3.30467e-06Z" fill="#330000"/>
<path d="M20.3525 24.5997H13.8425L12.5125 28.7172C12.4977 28.7922 12.4553 28.859 12.3938 28.9045C12.3323 28.9499 12.256 28.9706 12.18 28.9625H8.89002C8.69752 28.9625 8.64502 28.8574 8.69752 28.6471L14.3325 12.4048C14.385 12.2296 14.4375 12.0369 14.5075 11.8266C14.578 11.4511 14.6131 11.0698 14.6125 10.6877C14.6073 10.6439 14.6188 10.5996 14.6448 10.5639C14.6707 10.5281 14.7092 10.5035 14.7525 10.495H19.285C19.425 10.495 19.495 10.5476 19.5125 10.6352L25.9 28.6822C25.9525 28.8749 25.9 28.9625 25.725 28.9625H22.0675C22.0057 28.9685 21.9436 28.9524 21.8925 28.9171C21.8412 28.8819 21.8041 28.8297 21.7875 28.7698L20.3525 24.5997ZM14.8575 21.0429H19.3025C19.1975 20.6749 19.0575 20.2369 18.9 19.7813C18.7425 19.3258 18.585 18.8001 18.4275 18.2745C18.27 17.7488 18.095 17.2057 17.92 16.6625C17.745 16.1194 17.5875 15.6112 17.4475 15.1031C17.3075 14.595 17.185 14.157 17.0625 13.7364H17.0275C16.8702 14.5001 16.6716 15.2546 16.4325 15.9967C16.17 16.8377 15.9075 17.7138 15.6275 18.5899C15.3825 19.4835 15.12 20.307 14.8575 21.0429Z" fill="#FF9A00"/>
<path d="M29.715 13.4916C29.4278 13.4978 29.142 13.4469 28.8746 13.3416C28.6072 13.2363 28.3634 13.0788 28.1575 12.8783C27.7565 12.4394 27.543 11.8608 27.5625 11.2663C27.5521 10.9767 27.6029 10.6881 27.7114 10.4194C27.8201 10.1507 27.9839 9.90795 28.1925 9.70695C28.6132 9.30888 29.1712 9.08914 29.75 9.0937C30.4325 9.0937 30.9575 9.30395 31.3425 9.70695C31.7301 10.1318 31.9373 10.6911 31.92 11.2663C31.9306 11.5624 31.882 11.8576 31.7768 12.1344C31.6715 12.4113 31.512 12.6642 31.3075 12.8783C31.1013 13.0886 30.8525 13.2522 30.5777 13.358C30.303 13.4638 30.0088 13.5093 29.715 13.4916ZM27.755 28.7001V15.2087C27.755 15.0334 27.825 14.9634 27.9825 14.9634H31.4475C31.605 14.9634 31.675 15.051 31.675 15.2087V28.7001C31.675 28.8928 31.605 28.9804 31.4475 28.9804H28.0175C27.9807 28.9834 27.9436 28.9782 27.9093 28.9649C27.8748 28.9515 27.8439 28.9307 27.8187 28.9037C27.7933 28.8767 27.7746 28.8445 27.7635 28.8093C27.7525 28.7739 27.7495 28.7367 27.755 28.7001Z" fill="#FF9A00"/>
</svg>
