<svg width="42" height="41" viewBox="0 0 42 41" fill="none" xmlns="http://www.w3.org/2000/svg">
<path d="M7.4375 3.30467e-06H34.5625C35.5395 -0.000918617 36.5071 0.191063 37.4098 0.564962C38.3126 0.938861 39.1328 1.48734 39.8237 2.179C40.5144 2.87067 41.0624 3.69193 41.4358 4.59581C41.8093 5.49968 42.0009 6.46842 42 7.44658V33.5534C42.0009 34.5316 41.8093 35.5004 41.4358 36.4041C41.0624 37.3081 40.5144 38.1293 39.8237 38.821C39.1328 39.5126 38.3126 40.0612 37.4098 40.4351C36.5071 40.809 35.5395 41.0009 34.5625 41H7.4375C6.46055 41.0009 5.49299 40.809 4.5902 40.4351C3.68743 40.0612 2.86717 39.5126 2.17634 38.821C1.48552 38.1293 0.937717 37.3081 0.564274 36.4041C0.190831 35.5004 -0.000917497 34.5316 3.30064e-06 33.5534V7.44658C-0.000917497 6.46842 0.190831 5.49968 0.564274 4.59581C0.937717 3.69193 1.48552 2.87067 2.17634 2.179C2.86717 1.48734 3.68743 0.938861 4.5902 0.564962C5.49299 0.191063 6.46055 -0.000918617 7.4375 3.30467e-06Z" fill="#000B1D"/>
<path d="M9.6425 28.7698L9.625 10.8629C9.625 10.6877 9.6775 10.6001 9.8 10.5826C10.115 10.5651 10.605 10.5476 11.27 10.5476C11.935 10.5476 12.565 10.53 13.335 10.5125C14.105 10.495 14.805 10.495 15.4525 10.495C16.9925 10.495 18.2525 10.6001 19.1625 10.9506C19.9498 11.2131 20.6677 11.6504 21.2625 12.2296C21.731 12.683 22.085 13.2416 22.295 13.8591C22.4557 14.3633 22.5384 14.8892 22.54 15.4185C22.5344 15.9837 22.4217 16.5426 22.2075 17.0655C22.0535 17.5005 21.8221 17.9041 21.525 18.257C21.3139 18.5299 21.0597 18.7667 20.7725 18.9578C21.1734 19.1719 21.5491 19.4305 21.8925 19.7288C22.334 20.1197 22.6914 20.5966 22.9425 21.1305C23.2773 21.7924 23.4454 22.5262 23.4325 23.2681C23.4381 24.3574 23.0946 25.4199 22.4525 26.2993C21.7588 27.2162 20.8177 27.9154 19.74 28.3142C18.3981 28.8435 16.9644 29.0997 15.5225 29.0676H13.6675C13.0725 29.0676 12.5825 29.0676 12.075 29.0501C11.5675 29.0326 11.1475 29.0326 10.78 29.0151C10.4125 28.9976 10.0975 28.9976 9.835 28.9976C9.695 28.9976 9.6425 28.91 9.6425 28.7698ZM13.44 13.8241L13.4575 17.7313H15.295C15.8025 17.7313 16.2925 17.7488 16.7825 17.7664C17.1351 17.7665 17.4868 17.8018 17.8325 17.8715C18.0786 17.6577 18.2858 17.4027 18.445 17.1181C18.6333 16.7874 18.7299 16.4124 18.725 16.0317C18.7255 15.566 18.5783 15.112 18.305 14.7352C18.0302 14.4006 17.6661 14.1514 17.255 14.0168C16.6763 13.8444 16.0734 13.7674 15.47 13.789H14.6475C14.4025 13.789 14.245 13.789 14.0525 13.8065C13.86 13.8241 13.6675 13.8241 13.44 13.8241ZM13.4575 21.0078V25.7035C13.7725 25.7211 14.0175 25.7386 14.35 25.7386C14.6825 25.7386 15.05 25.7561 15.505 25.7561C16.1956 25.7708 16.8848 25.6881 17.5525 25.5108C18.064 25.3857 18.5269 25.1113 18.8825 24.7223C19.2141 24.3561 19.4061 23.8846 19.425 23.3907C19.4094 22.9085 19.2442 22.4432 18.9525 22.0591C18.7075 21.6911 18.2525 21.3758 17.605 21.2005C17.3517 21.1369 17.0945 21.0902 16.835 21.0604C16.4919 21.0253 16.1473 21.0078 15.8025 21.0078H13.4575Z" fill="white"/>
<path d="M25.935 14.893H28.9975C29.0804 14.895 29.1606 14.9232 29.2266 14.9735C29.2925 15.0239 29.341 15.0938 29.365 15.1733C29.4373 15.2973 29.4849 15.4342 29.505 15.5763C29.54 15.7516 29.575 15.9443 29.5925 16.1195C29.61 16.2947 29.6275 16.5926 29.6275 16.8204C30.1506 16.1849 30.7851 15.6505 31.5 15.2434C32.2525 14.8229 33.0575 14.7178 34.0375 14.7178C34.0664 14.7139 34.0956 14.7158 34.1236 14.7234C34.1516 14.7311 34.1778 14.7443 34.2008 14.7622C34.2235 14.7802 34.2426 14.8026 34.2566 14.8281C34.2708 14.8535 34.2795 14.8816 34.2825 14.9105V18.3447C34.2825 18.4849 34.195 18.5375 34.0025 18.5375C33.4047 18.4998 32.8046 18.541 32.2175 18.6601C31.7119 18.7645 31.2191 18.9233 30.7475 19.1332C30.3663 19.2837 30.0163 19.5036 29.715 19.7815V28.6648C29.715 28.84 29.645 28.9101 29.4875 28.9101H26.1625C26.1303 28.9155 26.0972 28.9143 26.0654 28.9066C26.0335 28.8989 26.0036 28.8847 25.9775 28.8651C25.9513 28.8454 25.9294 28.8206 25.9129 28.7922C25.8967 28.7638 25.8863 28.7324 25.8825 28.6998V18.993C25.8825 18.5725 25.8825 18.1345 25.865 17.6789C25.8475 17.2233 25.8475 16.7678 25.83 16.3122C25.8125 15.9092 25.7775 15.4887 25.725 15.0857C25.7203 15.065 25.7199 15.0436 25.7234 15.0227C25.7271 15.0018 25.7348 14.9818 25.7462 14.9639C25.7577 14.946 25.7724 14.9305 25.7897 14.9183C25.8072 14.9062 25.8268 14.8976 25.8475 14.893H25.935Z" fill="white"/>
</svg>
