<svg width="30" height="42" viewBox="0 0 30 42" fill="none" xmlns="http://www.w3.org/2000/svg">
<path d="M23.316 1.55478H20.8465L23.4146 4.3416V5.66829H18.1252V4.11485H20.693L18.1252 1.32803V0H23.316V1.55478ZM17.0765 1.55478H14.607L17.1751 4.3416V5.66829H11.8854V4.11485H14.4535L11.8854 1.32803V0H17.0765V1.55478ZM10.8982 1.61832H8.2334V4.04997H10.8982V5.66829H6.33917V0H10.8982V1.61832Z" fill="#131313"/>
<path d="M2.7079 38.6265L0 8.25574H29.7534L27.0432 38.6215L14.8585 41.9999L2.7079 38.6265Z" fill="#1572B6"/>
<path d="M14.8773 39.4177L24.7226 36.6881L27.0389 10.7391H14.8773V39.4177Z" fill="#33A9DC"/>
<path d="M14.8769 21.7425H19.8058L20.1465 17.9283H14.8769V14.2034H24.2172L24.128 15.2027L23.2126 25.467H14.8769V21.7425Z" fill="white"/>
<path d="M14.8993 31.4163L14.8829 31.4209L10.7346 30.3006L10.4691 27.3298H6.73047L7.25252 33.1784L14.8823 35.2963L14.8996 35.2913L14.8993 31.4163Z" fill="#EBEBEB"/>
<path d="M19.4894 25.3093L19.0405 30.2977L14.8862 31.4191V35.2945L22.5223 33.1782L22.5785 32.5488L23.2266 25.3093H19.4894Z" fill="white"/>
<path d="M14.89 14.2034V17.9279H5.89272L5.81781 17.0909L5.64825 15.2027L5.55896 14.2034H14.89ZM14.8769 21.7428V25.4677H10.7811L10.7065 24.6306L10.5366 22.7421L10.4474 21.7428H14.8769Z" fill="#EBEBEB"/>
</svg>
