<svg width="42" height="41" viewBox="0 0 42 41" fill="none" xmlns="http://www.w3.org/2000/svg">
<path d="M7.4375 3.30467e-06H34.5625C35.5395 -0.000918618 36.5071 0.191064 37.4097 0.564963C38.3126 0.938862 39.1328 1.48734 39.8237 2.179C40.5144 2.87067 41.0623 3.69193 41.4358 4.59581C41.8092 5.49968 42.0009 6.46842 42 7.44659V33.5534C42.0009 34.5316 41.8092 35.5004 41.4358 36.4042C41.0623 37.3081 40.5144 38.1293 39.8237 38.821C39.1328 39.5126 38.3126 40.0612 37.4097 40.4351C36.5071 40.809 35.5395 41.0009 34.5625 41H7.4375C6.46054 41.0009 5.49299 40.809 4.5902 40.4351C3.68742 40.0612 2.86716 39.5126 2.17633 38.821C1.48552 38.1293 0.937716 37.3081 0.564273 36.4042C0.19083 35.5004 -0.000917497 34.5316 3.30064e-06 33.5534V7.44659C-0.000917497 6.46842 0.19083 5.49968 0.564273 4.59581C0.937716 3.69193 1.48552 2.87067 2.17633 2.179C2.86716 1.48734 3.68742 0.938862 4.5902 0.564963C5.49299 0.191064 6.46054 -0.000918618 7.4375 3.30467e-06Z" fill="#000B1D"/>
<path d="M16.6251 33.6412C19.0413 33.6412 21.0001 31.68 21.0001 29.2608V24.8805H16.6251C14.2088 24.8805 12.2501 26.8417 12.2501 29.2608C12.2501 31.68 14.2088 33.6412 16.6251 33.6412Z" fill="#0ACF83"/>
<path d="M12.2501 20.4998C12.2501 18.0807 14.2088 16.1195 16.6251 16.1195H21.0001V24.8802H16.6251C14.2088 24.8802 12.2501 22.919 12.2501 20.4998Z" fill="#A259FF"/>
<path d="M12.2501 11.7395C12.2501 9.32028 14.2088 7.35913 16.6251 7.35913H21.0001V16.1198H16.6251C14.2088 16.1198 12.2501 14.1587 12.2501 11.7395Z" fill="#F24E1E"/>
<path d="M21 7.35913H25.375C27.7912 7.35913 29.75 9.32028 29.75 11.7395C29.75 14.1587 27.7912 16.1198 25.375 16.1198H21V7.35913Z" fill="#FF7262"/>
<path d="M29.75 20.4998C29.75 22.919 27.7912 24.8802 25.375 24.8802C22.9588 24.8802 21 22.919 21 20.4998C21 18.0807 22.9588 16.1195 25.375 16.1195C27.7912 16.1195 29.75 18.0807 29.75 20.4998Z" fill="#1ABCFE"/>
</svg>
