<svg width="42" height="18" viewBox="0 0 42 18" fill="none" xmlns="http://www.w3.org/2000/svg">
<path d="M25.1707 5.97062C24.2499 5.97062 23.5643 6.42278 23.5643 7.51113C23.5643 8.33101 24.0161 8.90025 25.1213 8.90025C26.0579 8.90025 26.6944 8.34817 26.6944 7.47715C26.6944 6.49007 26.1249 5.97062 25.1707 5.97062ZM23.3301 13.6547C23.1121 13.9221 22.8948 14.2064 22.8948 14.5418C22.8948 15.211 23.748 15.4122 24.9204 15.4122C25.891 15.4122 27.2135 15.3442 27.2135 14.4416C27.2135 13.905 26.577 13.872 25.7733 13.8215L23.3301 13.6547ZM28.2841 6.02108C28.5852 6.4063 28.9038 6.94189 28.9038 7.71198C28.9038 9.56975 27.4474 10.6578 25.3386 10.6578C24.8024 10.6578 24.3169 10.5911 24.0158 10.5074L23.4634 11.3945L25.1035 11.4945C27.9994 11.6792 29.7065 11.7629 29.7065 13.9884C29.7065 15.9138 28.0163 17.0011 25.1035 17.0011C22.0736 17.0011 20.9189 16.2311 20.9189 14.9092C20.9189 14.1556 21.254 13.7549 21.8398 13.2015C21.287 12.968 21.1033 12.5498 21.1033 12.0977C21.1033 11.7293 21.2873 11.3945 21.5888 11.0763C21.8902 10.7587 22.225 10.4401 22.6263 10.072C21.8061 9.67034 21.1871 8.79999 21.1871 7.56092C21.1871 5.63621 22.4591 4.31437 25.02 4.31437C25.74 4.31437 26.1757 4.38065 26.5602 4.48192H29.8246V5.90434L28.2841 6.02108ZM32.7693 2.97976C31.8149 2.97976 31.2625 2.427 31.2625 1.47255C31.2625 0.519447 31.8149 0 32.7693 0C33.7403 0 34.2924 0.519111 34.2924 1.47255C34.2927 2.427 33.7403 2.97976 32.7693 2.97976ZM30.6095 13.039V11.7172L31.4637 11.6001C31.6978 11.5665 31.7311 11.5163 31.7311 11.2647V6.34372C31.7311 6.16003 31.6813 6.04228 31.5135 5.99249L30.6095 5.67422L30.7935 4.31908H34.2591V11.265C34.2591 11.5335 34.2752 11.5665 34.5269 11.6004L35.3807 11.7175V13.0393L30.6095 13.039ZM42 12.3897C41.2797 12.7406 40.2256 13.0592 39.2709 13.0592C37.2792 13.0592 36.5263 12.2565 36.5263 10.3641V5.97869C36.5263 5.87877 36.5263 5.81149 36.392 5.81149H35.2206V4.32178C36.6941 4.1539 37.2795 3.41745 37.4636 1.593H39.0542V3.97054C39.0542 4.08728 39.0542 4.13809 39.1881 4.13809H41.5481V5.81182H39.0542V9.81197C39.0542 10.7994 39.2887 11.1843 40.1923 11.1843C40.6617 11.1843 41.1465 11.0675 41.5481 10.9168L42 12.3897Z" fill="#31251C"/>
<path d="M17.1984 7.99762L9.54498 0.344518C9.33332 0.132912 9.04627 0.0140381 8.74697 0.0140381C8.44767 0.0140381 8.16063 0.132912 7.94896 0.344518L6.35967 1.93381L8.37522 3.9497C8.61223 3.86911 8.86707 3.85653 9.11086 3.91338C9.35466 3.97022 9.57766 4.09422 9.75458 4.27133C9.93256 4.44944 10.0568 4.67405 10.1132 4.91946C10.1695 5.16488 10.1556 5.42119 10.0732 5.6591L12.0161 7.60198C12.3032 7.50192 12.6158 7.50238 12.9027 7.60328C13.1896 7.70418 13.4336 7.89953 13.5949 8.15732C13.7562 8.41511 13.8252 8.72004 13.7904 9.02214C13.7557 9.32424 13.6194 9.60558 13.4038 9.82006C13.1844 10.0399 12.8955 10.1769 12.5864 10.2077C12.2773 10.2385 11.967 10.1612 11.7085 9.98895C11.45 9.81669 11.2592 9.56013 11.1686 9.26299C11.078 8.96584 11.0932 8.64647 11.2117 8.35929L9.39965 6.54727L9.39931 11.3158C9.59057 11.4103 9.75658 11.549 9.8836 11.7203C10.0106 11.8917 10.095 12.0909 10.1297 12.3014C10.1644 12.5119 10.1485 12.7276 10.0833 12.9307C10.018 13.1338 9.90537 13.3184 9.75458 13.4693C9.61397 13.6099 9.44393 13.7175 9.2567 13.7843C9.06947 13.8512 8.86974 13.8757 8.67191 13.856C8.47407 13.8363 8.28307 13.773 8.11269 13.6706C7.9423 13.5681 7.79677 13.4291 7.6866 13.2637C7.57644 13.0982 7.50437 12.9103 7.47562 12.7136C7.44686 12.5168 7.46212 12.3162 7.52031 12.1261C7.57849 11.936 7.67814 11.7612 7.81208 11.6142C7.94601 11.4673 8.11089 11.3519 8.29481 11.2765V6.46384C8.13079 6.39666 7.9817 6.29767 7.85614 6.17257C7.73058 6.04747 7.63104 5.89874 7.56326 5.73497C7.49548 5.57119 7.46081 5.39562 7.46124 5.21838C7.46167 5.04114 7.49719 4.86573 7.56577 4.70229L5.57881 2.71467L0.330845 7.9623C0.225957 8.06715 0.142753 8.19163 0.0859854 8.32864C0.0292182 8.46565 0 8.61251 0 8.76081C0 8.90912 0.0292182 9.05597 0.0859854 9.19299C0.142753 9.33 0.225957 9.45448 0.330845 9.55933L7.98429 17.2124C8.19607 17.4241 8.48322 17.543 8.78263 17.543C9.08204 17.543 9.3692 17.4241 9.58098 17.2124L17.1984 9.59432C17.3033 9.4895 17.3865 9.36504 17.4433 9.22806C17.5 9.09107 17.5292 8.94425 17.5292 8.79597C17.5292 8.64769 17.5 8.50087 17.4433 8.36388C17.3865 8.2269 17.3033 8.10244 17.1984 7.99762Z" fill="#F34F29"/>
</svg>
