<svg width="42" height="42" viewBox="0 0 42 42" fill="none" xmlns="http://www.w3.org/2000/svg">
<path fill-rule="evenodd" clip-rule="evenodd" d="M21.0001 0C13.2517 0 6.96802 6.28204 6.96802 14.0321C6.96802 20.2317 10.9885 25.4916 16.5641 27.3469C17.2653 27.4768 17.5229 27.0424 17.5229 26.6717C17.5229 26.3373 17.5097 25.2317 17.5037 24.0596C13.5997 24.9082 12.7761 22.4039 12.7761 22.4039C12.1379 20.7818 11.2181 20.3504 11.2181 20.3504C9.94495 19.4797 11.3137 19.4975 11.3137 19.4975C12.723 19.5965 13.4651 20.9438 13.4651 20.9438C14.7164 23.0889 16.7478 22.4685 17.5482 22.11C17.6746 21.203 18.038 20.5836 18.4394 20.2333C15.3226 19.8788 12.0462 18.6753 12.0462 13.2986C12.0462 11.7666 12.5944 10.5149 13.4921 9.53207C13.3464 9.1785 12.8662 7.75105 13.628 5.81832C13.628 5.81832 14.8061 5.44167 17.4869 7.25731C18.6066 6.9463 19.8072 6.79029 20.9995 6.78501C22.1921 6.79062 23.3933 6.94663 24.5147 7.25731C27.1928 5.442 28.3696 5.81865 28.3696 5.81865C29.1334 7.75138 28.6532 9.1785 28.5074 9.5324C29.4072 10.5146 29.9514 11.7666 29.9514 13.2989C29.9514 18.6881 26.6687 19.8748 23.544 20.2218C24.0473 20.6572 24.4959 21.5114 24.4959 22.8208C24.4959 24.6981 24.48 26.209 24.48 26.6711C24.48 27.0437 24.7327 27.4817 25.4438 27.3439C31.0164 25.4863 35.0316 20.2284 35.0316 14.0308C35.0322 6.28237 28.7499 0 21.0001 0Z" fill="#181616"/>
<path d="M12.2831 20.1466C12.2517 20.2165 12.1419 20.2373 12.0423 20.1895C11.9401 20.1433 11.8833 20.0486 11.9163 19.9784C11.946 19.9071 12.0562 19.887 12.1581 19.9348C12.2603 19.981 12.318 20.0767 12.2831 20.1466ZM12.8513 20.7812C12.7844 20.8428 12.6535 20.8141 12.5644 20.7159C12.4727 20.6179 12.4556 20.487 12.5235 20.4243C12.5921 20.3623 12.7191 20.3913 12.8104 20.4893C12.9028 20.5882 12.9209 20.7178 12.851 20.7808L12.8513 20.7812ZM13.4044 21.5886C13.3187 21.6486 13.1779 21.5925 13.0911 21.4675C13.0047 21.3432 13.0047 21.1938 13.0928 21.1334C13.1798 21.0734 13.3184 21.1275 13.4061 21.2511C13.4925 21.3781 13.4925 21.5279 13.4044 21.5886ZM14.1624 22.3696C14.0855 22.4543 13.9216 22.4316 13.8019 22.3158C13.6792 22.2027 13.6452 22.0421 13.7221 21.9573C13.8002 21.8725 13.9648 21.8963 14.0855 22.0111C14.2076 22.1238 14.2445 22.2851 14.1624 22.3696ZM15.2086 22.8227C15.1743 22.9329 15.0166 22.9827 14.8576 22.9362C14.6987 22.888 14.5951 22.7594 14.6268 22.6486C14.6597 22.5378 14.8187 22.486 14.9787 22.5358C15.137 22.5833 15.2412 22.7106 15.2086 22.8227ZM16.3563 22.9068C16.3606 23.0223 16.2257 23.1186 16.0588 23.1206C15.8913 23.1245 15.7554 23.0308 15.7534 22.9167C15.7534 22.8 15.8853 22.705 16.0529 22.7023C16.2198 22.6991 16.3563 22.7921 16.3563 22.9068ZM17.4249 22.7251C17.4447 22.8379 17.3293 22.954 17.1634 22.9847C17.0005 23.015 16.8501 22.9451 16.8289 22.833C16.8092 22.7175 16.9269 22.6021 17.0895 22.5717C17.2554 22.5427 17.4038 22.6103 17.4249 22.7251Z" fill="#181616"/>
<path d="M8.08944 35.2215H4.56039C4.51666 35.2215 4.47471 35.2389 4.44378 35.2698C4.41286 35.3007 4.39548 35.3427 4.39548 35.3864V37.112C4.39548 37.1558 4.41286 37.1977 4.44378 37.2286C4.47471 37.2596 4.51666 37.2769 4.56039 37.2769H5.93672V39.4207C5.93672 39.4207 5.62768 39.5263 4.77247 39.5263C3.76454 39.5263 2.35589 39.1582 2.35589 36.0606C2.35589 32.9626 3.82292 32.5546 5.20024 32.5546C6.3922 32.5546 6.9054 32.7644 7.23258 32.8656C7.33482 32.8966 7.43047 32.7944 7.43047 32.7033L7.82394 31.0361C7.82458 31.0111 7.81915 30.9864 7.80812 30.964C7.79709 30.9416 7.78079 30.9222 7.76062 30.9075C7.6277 30.8125 6.81833 30.36 4.77312 30.36C2.41691 30.36 0 31.362 0 36.1813C0 40.9999 2.76717 41.7179 5.09899 41.7179C7.02974 41.7179 8.20092 40.8927 8.20092 40.8927C8.24908 40.8663 8.25435 40.7987 8.25435 40.7674V35.3861C8.25435 35.3423 8.23698 35.3004 8.20605 35.2695C8.17513 35.2385 8.13318 35.2215 8.08944 35.2215ZM26.1143 30.7716H24.1268C24.1052 30.7717 24.0837 30.776 24.0637 30.7844C24.0437 30.7928 24.0256 30.8051 24.0103 30.8205C23.9951 30.8359 23.983 30.8542 23.9748 30.8742C23.9666 30.8943 23.9625 30.9158 23.9626 30.9375L23.9633 34.7779H20.8656V30.9375C20.8657 30.9158 20.8616 30.8944 20.8534 30.8743C20.8453 30.8543 20.8332 30.836 20.818 30.8206C20.8028 30.8052 20.7847 30.7929 20.7647 30.7845C20.7448 30.7761 20.7233 30.7717 20.7017 30.7716H18.7145C18.6928 30.7717 18.6714 30.776 18.6514 30.7844C18.6314 30.7928 18.6133 30.8051 18.598 30.8205C18.5827 30.8359 18.5707 30.8542 18.5625 30.8742C18.5543 30.8943 18.5501 30.9158 18.5503 30.9375V41.3367C18.5503 41.428 18.6242 41.5026 18.7145 41.5026H20.7017C20.7234 41.5024 20.7448 41.498 20.7648 41.4896C20.7848 41.4812 20.8029 41.4689 20.8181 41.4534C20.8333 41.438 20.8454 41.4197 20.8535 41.3996C20.8617 41.3795 20.8658 41.358 20.8656 41.3363V36.8884H23.9633L23.958 41.3363C23.958 41.428 24.0319 41.5026 24.1229 41.5026H26.1143C26.136 41.5024 26.1575 41.498 26.1774 41.4896C26.1974 41.4812 26.2155 41.4689 26.2308 41.4534C26.246 41.438 26.258 41.4197 26.2662 41.3996C26.2743 41.3795 26.2784 41.358 26.2782 41.3363V30.9372C26.2785 30.9155 26.2744 30.894 26.2662 30.8739C26.2581 30.8539 26.2461 30.8356 26.2308 30.8202C26.2156 30.8048 26.1974 30.7926 26.1774 30.7842C26.1574 30.7759 26.136 30.7716 26.1143 30.7716ZM10.5581 31.0081C9.851 31.0081 9.27712 31.5862 9.27712 32.302C9.27712 33.0167 9.851 33.5965 10.5581 33.5965C11.2659 33.5965 11.8395 33.0167 11.8395 32.302C11.8395 31.5862 11.2656 31.0081 10.5581 31.0081ZM11.5331 34.177H9.55219C9.46116 34.177 9.38002 34.2706 9.38002 34.3617V41.239C9.38002 41.4412 9.50601 41.5012 9.66894 41.5012H11.4533C11.6495 41.5012 11.6973 41.4049 11.6973 41.2357V34.3429C11.6974 34.3212 11.6932 34.2997 11.685 34.2797C11.6768 34.2597 11.6647 34.2414 11.6495 34.2261C11.6342 34.2107 11.6161 34.1985 11.5961 34.1901C11.5762 34.1817 11.5547 34.1771 11.5331 34.177ZM33.8307 34.1925H31.8584C31.8368 34.1926 31.8154 34.1971 31.7954 34.2055C31.7755 34.214 31.7574 34.2263 31.7422 34.2417C31.727 34.2571 31.715 34.2754 31.7069 34.2955C31.6988 34.3156 31.6947 34.337 31.6948 34.3587V39.4577C31.6948 39.4577 31.1935 39.8238 30.4828 39.8238C29.772 39.8238 29.5833 39.5015 29.5833 38.8053V34.3587C29.5835 34.337 29.5794 34.3155 29.5713 34.2954C29.5631 34.2753 29.5511 34.257 29.5359 34.2416C29.5206 34.2261 29.5025 34.2139 29.4825 34.2054C29.4626 34.197 29.4411 34.1926 29.4194 34.1925H27.4181C27.3743 34.1928 27.3324 34.2105 27.3016 34.2417C27.2709 34.2728 27.2537 34.3149 27.2538 34.3587V39.1417C27.2538 41.2097 28.4066 41.7156 29.992 41.7156C31.2928 41.7156 32.3416 40.9966 32.3416 40.9966C32.3416 40.9966 32.3911 41.3759 32.4142 41.4204C32.4373 41.4653 32.4956 41.5105 32.5593 41.5105L33.8324 41.5049C33.8541 41.5048 33.8756 41.5004 33.8957 41.492C33.9158 41.4836 33.934 41.4713 33.9493 41.4559C33.9646 41.4405 33.9767 41.4222 33.9849 41.402C33.9932 41.3819 33.9974 41.3604 33.9973 41.3386L33.9963 34.3577C33.9961 34.314 33.9787 34.2721 33.9479 34.2411C33.917 34.2101 33.8751 34.1925 33.8314 34.1921L33.8307 34.1925ZM39.2206 33.959C38.1006 33.959 37.3387 34.4586 37.3387 34.4586V30.9372C37.3388 30.9155 37.3347 30.894 37.3265 30.874C37.3183 30.8539 37.3063 30.8357 37.2911 30.8203C37.2759 30.8049 37.2578 30.7926 37.2378 30.7842C37.2178 30.7758 37.1964 30.7714 37.1748 30.7713H35.1823C35.1606 30.7713 35.1391 30.7756 35.119 30.7839C35.0989 30.7923 35.0807 30.8045 35.0654 30.8199C35.05 30.8353 35.0379 30.8536 35.0297 30.8738C35.0215 30.8939 35.0173 30.9154 35.0174 30.9372V41.3363C35.0173 41.3581 35.0215 41.3796 35.0297 41.3997C35.0379 41.4199 35.05 41.4382 35.0654 41.4536C35.0807 41.469 35.0989 41.4812 35.119 41.4896C35.1391 41.4979 35.1606 41.5022 35.1823 41.5022H36.5649C36.6276 41.5022 36.6744 41.4702 36.7091 41.4138C36.743 41.3578 36.7928 40.9343 36.7928 40.9343C36.7928 40.9343 37.6075 41.7061 39.1504 41.7061C40.9611 41.7061 42 40.7878 42 37.5827C42 34.3775 40.341 33.9586 39.2203 33.9586L39.2206 33.959ZM38.4423 39.8178C37.7585 39.7971 37.2945 39.4867 37.2945 39.4867V36.1935C37.2945 36.1935 37.7523 35.9131 38.3136 35.8623C39.0237 35.7987 39.7081 36.0134 39.7081 37.7073C39.7081 39.494 39.3997 39.8465 38.4426 39.8175L38.4423 39.8178ZM17.4365 39.7789C17.3497 39.7789 17.1274 39.8142 16.8989 39.8142C16.1667 39.8142 15.9183 39.4738 15.9183 39.0332V36.109H17.4091C17.4309 36.109 17.4524 36.1047 17.4725 36.0964C17.4926 36.088 17.5109 36.0757 17.5262 36.0603C17.5415 36.0448 17.5536 36.0265 17.5618 36.0063C17.5701 35.9862 17.5742 35.9646 17.574 35.9428V34.3412C17.5741 34.3195 17.5699 34.298 17.5617 34.2779C17.5534 34.2578 17.5413 34.2396 17.526 34.2242C17.5106 34.2088 17.4924 34.1966 17.4724 34.1883C17.4523 34.1799 17.4308 34.1756 17.4091 34.1756H15.9183L15.916 32.2066C15.916 32.1318 15.8778 32.0945 15.7914 32.0945H13.7597C13.6812 32.0945 13.6386 32.1295 13.6386 32.205V34.24C13.6386 34.24 12.6205 34.4857 12.5519 34.5055C12.5176 34.5155 12.4875 34.5363 12.4661 34.5648C12.4447 34.5934 12.4331 34.6281 12.4331 34.6638V35.9425C12.433 35.9641 12.4372 35.9856 12.4453 36.0057C12.4535 36.0257 12.4655 36.044 12.4807 36.0594C12.496 36.0748 12.5141 36.087 12.534 36.0955C12.554 36.1039 12.5754 36.1083 12.5971 36.1084H13.6386V39.1849C13.6386 41.4706 15.2415 41.6948 16.3233 41.6948C16.8171 41.6948 17.4084 41.5365 17.5061 41.5002C17.5654 41.4781 17.5994 41.4171 17.5994 41.3508L17.6007 39.9442C17.6001 39.9006 17.5825 39.859 17.5517 39.8281C17.521 39.7972 17.4794 39.7794 17.4358 39.7786L17.4365 39.7789Z" fill="#100E0F"/>
</svg>
