<svg width="58" height="59" viewBox="0 0 58 59" fill="none" xmlns="http://www.w3.org/2000/svg">
<path d="M34.0205 16.8047H40.7393C41.7208 16.8048 42.5434 17.2858 42.9658 17.9424L42.9902 17.9795L43.0186 18.0146L50.1914 26.8154V26.8223L50.1895 26.8623C50.1893 26.8681 50.1895 26.8734 50.1895 26.8779L49.5098 35.54L49.5088 35.5488C49.4605 36.2697 48.746 36.9775 47.7168 36.9775L47.6055 36.9746H47.6035C46.5332 36.9168 45.8738 36.1204 45.9238 35.3701L45.9229 35.3691L46.5049 27.9639L46.5303 27.6426L46.3262 27.3926L44.7109 25.4111L43.2832 23.6582V55.4746C43.2832 56.3407 42.4635 57.1953 41.2656 57.1953C40.0686 57.1952 39.25 56.3408 39.25 55.4746V37.8867H35.5088V55.4746C35.5088 56.3407 34.6899 57.1952 33.4922 57.1953C32.3582 57.1953 31.5556 56.4204 31.4844 55.6025L31.3145 53.6562L30.0645 55.1572C28.8904 56.5663 27.228 57.0974 26.2158 57.1836L26.0225 57.1953H15.4268C15.3839 57.1953 15.3564 57.1808 15.3418 57.1709C15.3505 56.4956 15.6342 56.0155 16.0752 55.6445C16.4884 55.297 17.0443 55.0457 17.6357 54.8828L17.8916 54.8184L18.9287 54.5791L18.416 53.6465C17.866 52.6459 17.8086 51.7842 17.8613 51.2178L17.9346 50.4365L17.1553 50.3438L17.0947 50.3369L16.627 50.2812L16.3496 50.6621L11.6113 57.1641L11.6104 57.165C11.6087 57.1668 11.6026 57.173 11.5889 57.1797C11.5709 57.1884 11.5454 57.1953 11.5156 57.1953H8.61914C8.59732 57.1953 8.57812 57.1908 8.5625 57.1855C8.92244 56.6738 11.6336 52.8159 13.1475 50.5762L13.2861 50.3711L13.2852 50.124L13.2559 38.2686L13.2539 37.3945L12.3828 37.4688C12.2061 37.4838 12.0283 37.4912 11.8496 37.4912C9.74152 37.4912 7.82945 36.3989 6.82812 34.6641H6.83105L10.3301 33.4004L10.7422 33.252L10.8408 32.8252C10.9986 32.1421 11.599 31.5312 12.4521 31.3193L13.0039 31.1826L13.0586 30.6162L13.2422 28.7227L13.2793 28.7031C13.3145 28.6925 13.3473 28.6949 13.373 28.7012L13.4258 28.7256L14.2393 29.5293L15.1719 30.4502L15.5713 29.2012L16.0898 27.5752C16.0912 27.5739 16.0934 27.5716 16.0967 27.5693C16.1111 27.5593 16.1384 27.5472 16.1768 27.5459C16.218 27.5447 16.2484 27.556 16.2656 27.5664C16.2716 27.57 16.2746 27.5735 16.2764 27.5752L17.2188 29.8994L17.6338 30.9238L18.4814 30.2139C18.5905 30.1225 18.7119 30.0418 18.8457 29.9756L18.9844 29.9141L24.5137 27.7158L24.7295 27.6309L24.8662 27.4434L31.667 18.1484L31.6973 18.1074L31.7217 18.0625C32.1178 17.3458 32.9777 16.8047 34.0205 16.8047ZM30.0225 26.166L27.2207 29.9951L27.2197 29.9961C27.2187 29.9971 27.2168 29.9989 27.2139 30.001C27.2077 30.0053 27.197 30.0115 27.1816 30.0166L27.1553 30.0254L27.1289 30.0361C27.1184 30.0405 27.1086 30.0447 27.0996 30.0488L20.501 32.6729H20.5C20.2611 32.7678 20.0069 32.8164 19.7432 32.8164C19.7148 32.8164 19.6821 32.815 19.6348 32.8125L18.3721 32.7461L18.8467 33.918L21.1699 39.6553L21.3262 40.04L21.7314 40.1357C24.9883 40.9037 27.8188 42.7358 29.6064 45.1953L29.7764 45.4346V45.4355C29.8473 45.5383 29.9143 45.6438 29.9932 45.7676L31.4766 48.0967V24.1787L30.0225 26.166Z" stroke="black" stroke-width="1.60938"/>
<path d="M37.4807 3.40576C40.3066 3.40576 42.6075 5.70593 42.6077 8.53174C42.6077 11.3577 40.3067 13.6587 37.4807 13.6587C34.655 13.6586 32.3547 11.3577 32.3547 8.53174C32.3549 5.70597 34.6551 3.4059 37.4807 3.40576Z" stroke="black" stroke-width="1.60938"/>
</svg>
