<svg width="23" height="20" viewBox="0 0 23 20" fill="none" xmlns="http://www.w3.org/2000/svg">
<path d="M4.0187 11.6499C3.976 11.0868 3.17618 11.0207 3.0416 11.5691L3.01878 11.6621V11.6621C3.29928 11.9322 3.74498 11.9269 4.0187 11.6499V11.6499V11.6499ZM9.33792 13.4949C9.61142 13.7648 10.0511 13.7648 10.3246 13.4949L16.3947 7.50489C16.6734 7.22987 16.6734 6.78007 16.3947 6.50506V6.50506C16.1212 6.23519 15.6816 6.2352 15.4081 6.50508L9.33795 12.4951C9.05927 12.7701 9.05926 13.2199 9.33792 13.4949V13.4949ZM9.33794 6.50508C9.05927 6.78007 9.05927 7.22984 9.33794 7.50483L15.408 13.4949C15.6815 13.7648 16.1212 13.7648 16.3947 13.4949V13.4949C16.6734 13.2199 16.6734 12.7701 16.3947 12.4951L10.3245 6.50507C10.051 6.2352 9.61143 6.2352 9.33794 6.50508V6.50508ZM21.586 10C21.586 14.7522 17.6821 18.6047 12.8663 18.6047V20C18.4629 20 23 15.5228 23 10H21.586ZM4.14662 10C4.14662 5.24778 8.05056 1.39535 12.8663 1.39535V0C7.26963 0 2.73262 4.47715 2.73262 10H4.14662ZM12.8663 1.39535C17.6821 1.39535 21.586 5.24778 21.586 10H23C23 4.47715 18.4629 0 12.8663 0V1.39535ZM3.51022 11.1631C3.8986 11.1153 4.17127 10.761 4.15453 10.37C4.14928 10.2474 4.14662 10.124 4.14662 10H2.73262C2.73262 10.1836 2.73765 10.3662 2.74757 10.5476C2.76886 10.9365 3.12366 11.2106 3.51022 11.1631V11.1631ZM12.8663 18.6047C10.1214 18.6047 7.67244 17.3536 6.07321 15.3953C5.82943 15.0968 5.39828 15.0126 5.07848 15.2277V15.2277C4.75302 15.4466 4.66737 15.891 4.91261 16.1971C6.76763 18.5124 9.64083 20 12.8663 20V18.6047ZM4.0187 11.6499L6.39127 9.24918C6.66652 8.97067 6.66088 8.52086 6.37873 8.24934V8.24934C6.10184 7.98287 5.66222 7.98839 5.39209 8.26171L3.32686 10.3514C3.13234 10.5483 3.07336 10.8419 3.17678 11.0985V11.0985C3.25035 11.2811 3.39803 11.4239 3.58301 11.4913L4.0187 11.6499ZM3.27524 11.4028C3.67743 10.9961 3.6694 10.339 3.2574 9.94229L1.48666 8.23713C1.20995 7.97066 0.770473 7.97603 0.500351 8.24917V8.24917C0.225098 8.5275 0.23059 8.97717 0.512558 9.24869L3.01878 11.6621L3.27524 11.4028Z" fill="#616161"/>
</svg>
