<svg width="58" height="58" viewBox="0 0 58 58" fill="none" xmlns="http://www.w3.org/2000/svg">
<path d="M27.2579 29.1024C27.3241 27.4834 27.5035 25.9568 27.7889 24.5697C27.4683 23.4035 25.5162 22.8733 25.1326 22.7211C23.6751 23.4196 22.1537 23.7726 20.5921 23.7726C14.2965 23.7726 9.49558 18.1042 9.29433 17.863C9.0713 17.5955 8.9668 17.2317 9.00931 16.8703C9.05166 16.5089 9.23671 16.1871 9.51407 15.9923C13.4397 13.2345 16.8256 11.8363 19.5781 11.8363C24.1349 11.8363 26.3248 15.6239 26.9449 19.3552C27.4067 19.5982 27.9003 19.9281 28.3691 20.3523L28.3727 20.3456C27.6103 17.8965 26.6231 13.0182 29.0598 8.9189C31.3941 4.99137 36.1382 3 43.1601 3C44.5543 3 46.0615 3.07925 47.6399 3.23554C48.0914 3.28045 48.5013 3.54565 48.7591 3.95981C49.0167 4.3738 49.0952 4.89363 48.9734 5.37843C48.9297 5.55211 47.8731 9.68203 45.2035 13.8456C41.6075 19.4541 37.2966 22.4406 31.7835 22.4935C31.0527 23.9406 29.5598 26.469 30.3917 29.1024" stroke="#616161" stroke-width="2"/>
<path d="M16.474 37.6006H41.726C41.8173 37.6006 41.896 37.6291 41.9554 37.6738L42.0082 37.7236C42.0706 37.7971 42.1141 37.9172 42.0951 38.0625L39.6097 53.0107L39.6078 53.0234L39.6058 53.0352C39.5599 53.3606 39.2626 53.6006 38.9886 53.6006H19.2113C18.9373 53.6006 18.64 53.3605 18.5941 53.0352L18.5922 53.0234L18.5902 53.0107L16.1039 38.0615C16.0851 37.9169 16.1294 37.797 16.1918 37.7236C16.2532 37.6515 16.3525 37.6006 16.474 37.6006Z" stroke="#616161" stroke-width="2"/>
<path d="M14.5127 29.5464H43.6035C43.7892 29.5464 44.1162 29.7511 44.1162 30.2271V36.771C44.1162 37.2465 43.7893 37.4517 43.6035 37.4517H14.5127C14.3268 37.4515 14 37.2462 14 36.771V30.2271L14.0146 30.061C14.0705 29.7545 14.2772 29.5953 14.4375 29.5562L14.5127 29.5464Z" stroke="#616161" stroke-width="2"/>
</svg>
