<svg width="70" height="57" viewBox="0 0 70 57" fill="none" xmlns="http://www.w3.org/2000/svg">
<mask id="path-1-inside-1_555_40699" fill="white">
<path d="M62.8096 52.4876H62.0904C60.6771 52.4876 59.5271 51.3327 59.5271 49.9137V6.97451C59.5271 6.89384 59.5604 5 62.4499 5C65.8149 5 67.2705 14.8231 67.2705 19.8338C67.2705 25.8573 65.6728 31.3954 65.3729 32.3802V49.9133C65.3726 51.3327 64.223 52.4876 62.8096 52.4876ZM61.4475 33.1986V49.9137C61.4475 50.2695 61.7358 50.5591 62.0904 50.5591H62.8096C63.1639 50.5591 63.4526 50.2698 63.4526 49.9137V33.1986H61.4475ZM61.4475 31.27H63.6933C64.1695 29.5565 65.3502 24.8052 65.3502 19.8341C65.3502 13.1176 63.4094 7.31844 62.4246 6.92887C61.8306 6.93241 61.5425 7.05101 61.4475 7.11915V31.27ZM7.48299 52.4876C6.50843 52.4876 5.60172 52.1566 5.05763 51.6021C4.69309 51.2305 4.49625 50.7629 4.5033 50.2852L4.89088 23.8557C3.20836 22.9378 2.04241 21.1603 2.00048 19.1218C1.99984 19.1019 1.99984 19.0813 2.00048 19.0604V19.0578V19.0565V19.0553V19.0533V19.0533V19.0498L2.54937 6.93048C2.57338 6.39852 3.02561 5.99031 3.5521 6.0112C4.08179 6.03531 4.49177 6.48659 4.46777 7.01855L3.96497 18.1296H5.03682L5.28999 6.95298C5.30215 6.4207 5.74766 5.99385 6.27159 6.01088C6.8016 6.02277 7.22183 6.46441 7.20966 6.99669L6.95746 18.1296H8.00852L7.75632 6.99669C7.74415 6.46441 8.16406 6.02277 8.69439 6.01088C9.22536 5.98388 9.66415 6.42038 9.67599 6.95298L9.92916 18.1296H11.001L10.4979 7.01887C10.4739 6.48691 10.8839 6.03563 11.4136 6.01152C11.9426 5.98517 12.3923 6.39884 12.4163 6.9308L12.9652 19.0498V19.0514C12.9661 19.0752 12.9665 19.0987 12.9658 19.1224C12.9239 21.1609 11.7579 22.9381 10.0754 23.8564L10.463 50.2859C10.47 50.7632 10.2732 51.2308 9.90867 51.6027C9.36426 52.1566 8.45755 52.4876 7.48299 52.4876ZM6.42393 50.2483C6.52027 50.3492 6.87969 50.5591 7.48299 50.5591C8.08629 50.5591 8.44571 50.3495 8.54205 50.2483L8.1647 24.5185H6.8016L6.42393 50.2483ZM4.0773 20.0581C4.52858 21.5193 5.89361 22.5903 7.48299 22.5903C9.07237 22.5903 10.4371 21.5193 10.8887 20.0581H8.99268H8.9882H5.9781H5.9733H4.0773ZM35.0556 49.3013C23.2238 49.3013 13.5979 39.6342 13.5979 27.7514C13.5979 15.869 23.2238 6.20181 35.0556 6.20181C46.8873 6.20181 56.5132 15.869 56.5132 27.7514C56.5132 39.6342 46.8873 49.3013 35.0556 49.3013ZM35.0556 8.13036C24.2826 8.13036 15.5182 16.9323 15.5182 27.7514C15.5182 38.5706 24.2826 47.3728 35.0556 47.3728C45.8285 47.3728 54.5929 38.5706 54.5929 27.7514C54.5929 16.9323 45.8285 8.13036 35.0556 8.13036ZM35.0556 43.4826C26.4186 43.4826 19.3918 36.4257 19.3918 27.7517C19.3918 19.0778 26.4186 12.0209 35.0556 12.0209C43.6925 12.0209 50.7193 19.0778 50.7193 27.7517C50.7193 36.4257 43.6925 43.4826 35.0556 43.4826ZM35.0556 13.9491C27.4773 13.9491 21.3122 20.141 21.3122 27.7514C21.3122 35.3618 27.4777 41.5537 35.0556 41.5537C42.6335 41.5537 48.799 35.3618 48.799 27.7514C48.799 20.141 42.6335 13.9491 35.0556 13.9491Z"/>
</mask>
<path d="M65.3729 32.3802L63.1727 31.7103L63.0729 32.0378V32.3802H65.3729ZM65.3729 49.9133L67.6729 49.9138V49.9133H65.3729ZM61.4475 33.1986V30.8986H59.1475V33.1986H61.4475ZM63.4526 33.1986H65.7526V30.8986H63.4526V33.1986ZM61.4475 31.27H59.1475V33.5701H61.4475V31.27ZM63.6933 31.27V33.5701H65.4412L65.9093 31.8859L63.6933 31.27ZM62.4246 6.92887L63.2706 4.79013L62.8564 4.62626L62.4109 4.62891L62.4246 6.92887ZM61.4475 7.11915L60.1074 5.24985L59.1475 5.93801V7.11915H61.4475ZM5.05763 51.6021L3.41583 53.2128L3.416 53.213L5.05763 51.6021ZM4.5033 50.2852L6.80305 50.3191L6.80305 50.3189L4.5033 50.2852ZM4.89088 23.8557L7.19064 23.8895L7.21099 22.5015L5.99247 21.8367L4.89088 23.8557ZM2.00048 19.1218L4.3 19.0745L4.29972 19.0612L4.2993 19.048L2.00048 19.1218ZM2.00048 19.0604L4.2994 19.1308L4.30048 19.0956V19.0604H2.00048ZM2.00048 19.0498L-0.297167 18.9457L-0.299523 18.9977V19.0498H2.00048ZM2.54937 6.93048L4.84702 7.03454L4.84704 7.03416L2.54937 6.93048ZM3.5521 6.0112L3.65667 3.71354L3.6433 3.71301L3.5521 6.0112ZM4.46777 7.01855L6.76542 7.12252L6.76543 7.12223L4.46777 7.01855ZM3.96497 18.1296L1.66731 18.0256L1.55853 20.4296H3.96497V18.1296ZM5.03682 18.1296V20.4296H7.28532L7.33624 18.1816L5.03682 18.1296ZM5.28999 6.95298L2.99058 6.90044L2.99057 6.90089L5.28999 6.95298ZM6.27159 6.01088L6.19684 8.30967L6.20842 8.31005L6.21999 8.31031L6.27159 6.01088ZM7.20966 6.99669L4.91026 6.94415L4.91025 6.9446L7.20966 6.99669ZM6.95746 18.1296L4.65805 18.0775L4.60477 20.4296H6.95746V18.1296ZM8.00852 18.1296V20.4296H10.3612L10.3079 18.0775L8.00852 18.1296ZM7.75632 6.99669L10.0557 6.9446L10.0557 6.94415L7.75632 6.99669ZM8.69439 6.01088L8.74596 8.31031L8.77859 8.30957L8.81119 8.30792L8.69439 6.01088ZM9.67599 6.95298L7.37656 7.0041L7.37658 7.00506L9.67599 6.95298ZM9.92916 18.1296L7.62974 18.1816L7.68066 20.4296H9.92916V18.1296ZM11.001 18.1296V20.4296H13.4075L13.2987 18.0255L11.001 18.1296ZM10.4979 7.01887L8.20023 7.12255L8.20024 7.12291L10.4979 7.01887ZM11.4136 6.01152L11.5181 8.30917L11.528 8.30868L11.4136 6.01152ZM12.4163 6.9308L10.1186 7.03448L10.1186 7.03486L12.4163 6.9308ZM12.9652 19.0498H15.2652V18.9977L15.2628 18.9457L12.9652 19.0498ZM12.9652 19.0514H10.6652V19.0978L10.667 19.1442L12.9652 19.0514ZM12.9658 19.1224L10.6666 19.0606L10.6665 19.0679L10.6663 19.0751L12.9658 19.1224ZM10.0754 23.8564L8.97353 21.8375L7.75531 22.5024L7.77566 23.8901L10.0754 23.8564ZM10.463 50.2859L8.16325 50.3196L8.16325 50.3198L10.463 50.2859ZM9.90867 51.6027L11.5489 53.2151L11.5512 53.2128L9.90867 51.6027ZM6.42393 50.2483L4.12418 50.2145L4.11037 51.1555L4.76018 51.8363L6.42393 50.2483ZM8.54205 50.2483L10.2083 51.8337L10.8556 51.1534L10.8418 50.2145L8.54205 50.2483ZM8.1647 24.5185L10.4645 24.4848L10.4312 22.2185H8.1647V24.5185ZM6.8016 24.5185V22.2185H4.53511L4.50184 24.4848L6.8016 24.5185ZM4.0773 20.0581V17.7581H0.95978L1.87972 20.7368L4.0773 20.0581ZM10.8887 20.0581L13.0861 20.7372L14.0069 17.7581H10.8887V20.0581ZM62.8096 52.4876V50.1876H62.0904V52.4876V54.7876H62.8096V52.4876ZM62.0904 52.4876V50.1876C61.9564 50.1876 61.8271 50.0716 61.8271 49.9137H59.5271H57.2271C57.2271 52.5939 59.3978 54.7876 62.0904 54.7876V52.4876ZM59.5271 49.9137H61.8271V6.97451H59.5271H57.2271V49.9137H59.5271ZM59.5271 6.97451H61.8271C61.8271 7.0959 61.8162 7.16092 61.8059 7.20139C61.7947 7.2453 61.7735 7.29977 61.7325 7.3535C61.682 7.41958 61.6458 7.4263 61.6947 7.40495C61.7571 7.3777 61.9759 7.3 62.4499 7.3V5V2.7C60.4584 2.7 58.9758 3.38488 58.0775 4.5605C57.2689 5.6186 57.2271 6.70315 57.2271 6.97451H59.5271ZM62.4499 5V7.3C62.0487 7.3 62.17 7.0091 62.6593 7.81112C63.0949 8.52505 63.5239 9.65476 63.8931 11.1052C64.624 13.9763 64.9705 17.4914 64.9705 19.8338H67.2705H69.5705C69.5705 17.1654 69.1892 13.2636 68.351 9.97051C67.9357 8.33887 67.3698 6.69965 66.5861 5.41517C65.8561 4.21878 64.5335 2.7 62.4499 2.7V5ZM67.2705 19.8338H64.9705C64.9705 25.5159 63.451 30.7962 63.1727 31.7103L65.3729 32.3802L67.5732 33.0502C67.8946 31.9946 69.5705 26.1986 69.5705 19.8338H67.2705ZM65.3729 32.3802H63.0729V49.9133H65.3729H67.6729V32.3802H65.3729ZM65.3729 49.9133L63.0729 49.9128C63.0729 50.0721 62.943 50.1876 62.8096 50.1876V52.4876V54.7876C65.5029 54.7876 67.6723 52.5934 67.6729 49.9138L65.3729 49.9133ZM61.4475 33.1986H59.1475V49.9137H61.4475H63.7475V33.1986H61.4475ZM61.4475 49.9137H59.1475C59.1475 51.5312 60.4571 52.8591 62.0904 52.8591V50.5591V48.2591C63.0146 48.2591 63.7475 49.0077 63.7475 49.9137H61.4475ZM62.0904 50.5591V52.8591H62.8096V50.5591V48.2591H62.0904V50.5591ZM62.8096 50.5591V52.8591C64.4412 52.8591 65.7526 51.533 65.7526 49.9137H63.4526H61.1526C61.1526 49.0066 61.8866 48.2591 62.8096 48.2591V50.5591ZM63.4526 49.9137H65.7526V33.1986H63.4526H61.1526V49.9137H63.4526ZM63.4526 33.1986V30.8986H61.4475V33.1986V35.4986H63.4526V33.1986ZM61.4475 31.27V33.5701H63.6933V31.27V28.97H61.4475V31.27ZM63.6933 31.27L65.9093 31.8859C66.4054 30.1009 67.6502 25.1146 67.6502 19.8341H65.3502H63.0502C63.0502 24.4959 61.9336 29.0122 61.4773 30.6542L63.6933 31.27ZM65.3502 19.8341H67.6502C67.6502 16.2681 67.1369 12.9446 66.4826 10.4298C66.1567 9.17703 65.782 8.07156 65.3902 7.21165C65.1966 6.78659 64.9722 6.36243 64.7129 5.99454C64.517 5.71673 64.0531 5.09964 63.2706 4.79013L62.4246 6.92887L61.5785 9.06761C61.0423 8.85549 60.8544 8.50485 60.9532 8.64498C60.9885 8.69502 61.0773 8.84031 61.2041 9.11865C61.4533 9.66554 61.7484 10.5027 62.0308 11.588C62.5931 13.7492 63.0502 16.6835 63.0502 19.8341H65.3502ZM62.4246 6.92887L62.4109 4.62891C61.6084 4.63368 60.7612 4.78116 60.1074 5.24985L61.4475 7.11915L62.7875 8.98846C62.6358 9.09722 62.5096 9.15572 62.4438 9.18322C62.3694 9.21434 62.317 9.22864 62.2944 9.23416C62.2498 9.24506 62.2883 9.22972 62.4383 9.22883L62.4246 6.92887ZM61.4475 7.11915H59.1475V31.27H61.4475H63.7475V7.11915H61.4475ZM7.48299 52.4876V50.1876C7.25056 50.1876 7.04843 50.1473 6.89771 50.0923C6.74178 50.0353 6.68978 49.9815 6.69925 49.9912L5.05763 51.6021L3.416 53.213C4.49663 54.3142 6.05717 54.7876 7.48299 54.7876V52.4876ZM5.05763 51.6021L6.69942 49.9913C6.72254 50.0149 6.80592 50.1246 6.80305 50.3191L4.5033 50.2852L2.20354 50.2513C2.18659 51.4011 2.66364 52.4462 3.41583 53.2128L5.05763 51.6021ZM4.5033 50.2852L6.80305 50.3189L7.19064 23.8895L4.89088 23.8557L2.59112 23.822L2.20354 50.2515L4.5033 50.2852ZM4.89088 23.8557L5.99247 21.8367C4.99874 21.2945 4.32416 20.2493 4.3 19.0745L2.00048 19.1218L-0.299036 19.1691C-0.239345 22.0713 1.41798 24.581 3.78929 25.8748L4.89088 23.8557ZM2.00048 19.1218L4.2993 19.048C4.30027 19.0784 4.30017 19.106 4.2994 19.1308L2.00048 19.0604L-0.298444 18.99C-0.300487 19.0566 -0.300594 19.1254 -0.298337 19.1956L2.00048 19.1218ZM2.00048 19.0604H4.30048V19.0578H2.00048H-0.299523V19.0604H2.00048ZM2.00048 19.0578H4.30048V19.0565H2.00048H-0.299523V19.0578H2.00048ZM2.00048 19.0565H4.30048V19.0553H2.00048H-0.299523V19.0565H2.00048ZM2.00048 19.0553H4.30048V19.0533H2.00048H-0.299523V19.0553H2.00048ZM2.00048 19.0533H4.30048V19.0498H2.00048H-0.299523V19.0533H2.00048ZM2.00048 19.0498L4.29813 19.1539L4.84702 7.03454L2.54937 6.93048L0.251724 6.82642L-0.297167 18.9457L2.00048 19.0498ZM2.54937 6.93048L4.84704 7.03416C4.81334 7.78098 4.18406 8.33809 3.4609 8.3094L3.5521 6.0112L3.6433 3.71301C1.86716 3.64253 0.333414 5.01606 0.251706 6.8268L2.54937 6.93048ZM3.5521 6.0112L3.44753 8.30883C2.6981 8.27472 2.13734 7.64098 2.1701 6.91487L4.46777 7.01855L6.76543 7.12223C6.84621 5.3322 5.46547 3.7959 3.65667 3.71358L3.5521 6.0112ZM4.46777 7.01855L2.17012 6.91457L1.66731 18.0256L3.96497 18.1296L6.26262 18.2335L6.76542 7.12252L4.46777 7.01855ZM3.96497 18.1296V20.4296H5.03682V18.1296V15.8296H3.96497V18.1296ZM5.03682 18.1296L7.33624 18.1816L7.5894 7.00506L5.28999 6.95298L2.99057 6.90089L2.73741 18.0775L5.03682 18.1296ZM5.28999 6.95298L7.58939 7.00552C7.57302 7.72179 6.98102 8.33517 6.19684 8.30967L6.27159 6.01088L6.34633 3.71209C4.51431 3.65252 3.03127 5.1196 2.99058 6.90044L5.28999 6.95298ZM6.27159 6.01088L6.21999 8.31031C5.47028 8.29348 4.89361 7.67273 4.91026 6.94415L7.20966 6.99669L9.50907 7.04923C9.55004 5.2561 8.13292 3.75207 6.32319 3.71146L6.27159 6.01088ZM7.20966 6.99669L4.91025 6.9446L4.65805 18.0775L6.95746 18.1296L9.25688 18.1817L9.50908 7.04878L7.20966 6.99669ZM6.95746 18.1296V20.4296H8.00852V18.1296V15.8296H6.95746V18.1296ZM8.00852 18.1296L10.3079 18.0775L10.0557 6.9446L7.75632 6.99669L5.4569 7.04878L5.7091 18.1816L8.00852 18.1296ZM7.75632 6.99669L10.0557 6.94415C10.0724 7.6722 9.4959 8.29349 8.74596 8.31031L8.69439 6.01088L8.64283 3.71146C6.83222 3.75206 5.41595 5.25663 5.45691 7.04923L7.75632 6.99669ZM8.69439 6.01088L8.81119 8.30792C7.95399 8.35151 7.39139 7.67124 7.37656 7.0041L9.67599 6.95298L11.9754 6.90185C11.9369 5.16951 10.4967 3.61626 8.57759 3.71385L8.69439 6.01088ZM9.67599 6.95298L7.37658 7.00506L7.62974 18.1816L9.92916 18.1296L12.2286 18.0775L11.9754 6.90089L9.67599 6.95298ZM9.92916 18.1296V20.4296H11.001V18.1296V15.8296H9.92916V18.1296ZM11.001 18.1296L13.2987 18.0255L12.7955 6.91482L10.4979 7.01887L8.20024 7.12291L8.70337 18.2336L11.001 18.1296ZM10.4979 7.01887L12.7956 6.91519C12.8283 7.6413 12.2676 8.27504 11.5181 8.30915L11.4136 6.01152L11.309 3.7139C9.50018 3.79622 8.11945 5.33252 8.20023 7.12255L10.4979 7.01887ZM11.4136 6.01152L11.528 8.30868C10.7643 8.34672 10.1512 7.75577 10.1186 7.03448L12.4163 6.9308L14.714 6.82712C14.6334 5.04191 13.1209 3.62361 11.2991 3.71437L11.4136 6.01152ZM12.4163 6.9308L10.1186 7.03486L10.6675 19.1539L12.9652 19.0498L15.2628 18.9457L14.7139 6.82673L12.4163 6.9308ZM12.9652 19.0498H10.6652V19.0514H12.9652H15.2652V19.0498H12.9652ZM12.9652 19.0514L10.667 19.1442C10.6664 19.1275 10.6656 19.0983 10.6666 19.0606L12.9658 19.1224L15.265 19.1843C15.2673 19.099 15.2659 19.0229 15.2633 18.9586L12.9652 19.0514ZM12.9658 19.1224L10.6663 19.0751C10.6421 20.2497 9.96773 21.2949 8.97353 21.8375L10.0754 23.8564L11.1773 25.8753C13.5481 24.5813 15.2056 22.0721 15.2653 19.1697L12.9658 19.1224ZM10.0754 23.8564L7.77566 23.8901L8.16325 50.3196L10.463 50.2859L12.7628 50.2521L12.3752 23.8227L10.0754 23.8564ZM10.463 50.2859L8.16325 50.3198C8.16037 50.1246 8.24401 50.0153 8.26618 49.9927L9.90867 51.6027L11.5512 53.2128C12.3024 52.4464 12.7797 51.4018 12.7628 50.2519L10.463 50.2859ZM9.90867 51.6027L8.26846 49.9904C8.27754 49.9811 8.22502 50.0352 8.06874 50.0922C7.9177 50.1473 7.7154 50.1876 7.48299 50.1876V52.4876V54.7876C8.909 54.7876 10.4685 54.3142 11.5489 53.2151L9.90867 51.6027ZM6.42393 50.2483L4.76018 51.8363C5.404 52.5108 6.43697 52.8591 7.48299 52.8591V50.5591V48.2591C7.44969 48.2591 7.47745 48.2536 7.55594 48.2824C7.59335 48.2961 7.6512 48.3209 7.72519 48.3651C7.76237 48.3874 7.81026 48.4185 7.86557 48.4606C7.91698 48.4997 7.99701 48.5652 8.08768 48.6602L6.42393 50.2483ZM7.48299 50.5591V52.8591C8.05251 52.8591 8.5615 52.7599 8.99479 52.6009C9.36825 52.4639 9.83371 52.2274 10.2083 51.8337L8.54205 50.2483L6.87577 48.6628C6.96689 48.5671 7.0474 48.5011 7.09915 48.4616C7.15481 48.4192 7.20301 48.3879 7.24041 48.3655C7.31481 48.321 7.37297 48.2961 7.41047 48.2823C7.48914 48.2535 7.51677 48.2591 7.48299 48.2591V50.5591ZM8.54205 50.2483L10.8418 50.2145L10.4645 24.4848L8.1647 24.5185L5.86495 24.5522L6.24229 50.282L8.54205 50.2483ZM8.1647 24.5185V22.2185H6.8016V24.5185V26.8185H8.1647V24.5185ZM6.8016 24.5185L4.50184 24.4848L4.12418 50.2145L6.42393 50.2483L8.72369 50.282L9.10135 24.5523L6.8016 24.5185ZM4.0773 20.0581L1.87972 20.7368C2.61595 23.1207 4.84228 24.8903 7.48299 24.8903V22.5903V20.2903C6.94494 20.2903 6.44121 19.9179 6.27489 19.3794L4.0773 20.0581ZM7.48299 22.5903V24.8903C10.124 24.8903 12.3496 23.1204 13.0861 20.7372L10.8887 20.0581L8.69123 19.379C8.52457 19.9182 8.02072 20.2903 7.48299 20.2903V22.5903ZM10.8887 20.0581V17.7581H8.99268V20.0581V22.3581H10.8887V20.0581ZM8.99268 20.0581V17.7581H8.9882V20.0581V22.3581H8.99268V20.0581ZM8.9882 20.0581V17.7581H5.9781V20.0581V22.3581H8.9882V20.0581ZM5.9781 20.0581V17.7581H5.9733V20.0581V22.3581H5.9781V20.0581ZM5.9733 20.0581V17.7581H4.0773V20.0581V22.3581H5.9733V20.0581ZM35.0556 49.3013V47.0013C24.5034 47.0013 15.8979 38.3732 15.8979 27.7514H13.5979H11.2979C11.2979 40.8951 21.9443 51.6013 35.0556 51.6013V49.3013ZM13.5979 27.7514H15.8979C15.8979 17.13 24.5034 8.50181 35.0556 8.50181V6.20181V3.9018C21.9443 3.9018 11.2979 14.608 11.2979 27.7514H13.5979ZM35.0556 6.20181V8.50181C45.6078 8.50181 54.2132 17.13 54.2132 27.7514H56.5132H58.8132C58.8132 14.608 48.1668 3.9018 35.0556 3.9018V6.20181ZM56.5132 27.7514H54.2132C54.2132 38.3732 45.6077 47.0013 35.0556 47.0013V49.3013V51.6013C48.1668 51.6013 58.8132 40.8951 58.8132 27.7514H56.5132ZM35.0556 8.13036V5.83035C23.0031 5.83035 13.2182 15.6713 13.2182 27.7514H15.5182H17.8182C17.8182 18.1932 25.5621 10.4304 35.0556 10.4304V8.13036ZM15.5182 27.7514H13.2182C13.2182 39.8315 23.003 49.6728 35.0556 49.6728V47.3728V45.0728C25.5621 45.0728 17.8182 37.3096 17.8182 27.7514H15.5182ZM35.0556 47.3728V49.6728C47.1081 49.6728 56.8929 39.8315 56.8929 27.7514H54.5929H52.2929C52.2929 37.3096 44.549 45.0728 35.0556 45.0728V47.3728ZM54.5929 27.7514H56.8929C56.8929 15.6713 47.1081 5.83035 35.0556 5.83035V8.13036V10.4304C44.549 10.4304 52.2929 18.1932 52.2929 27.7514H54.5929ZM35.0556 43.4826V41.1826C27.6981 41.1826 21.6918 35.1647 21.6918 27.7517H19.3918H17.0918C17.0918 37.6867 25.1391 45.7826 35.0556 45.7826V43.4826ZM19.3918 27.7517H21.6918C21.6918 20.3387 27.6981 14.3209 35.0556 14.3209V12.0209V9.72088C25.1391 9.72088 17.0918 17.8168 17.0918 27.7517H19.3918ZM35.0556 12.0209V14.3209C42.413 14.3209 48.4193 20.3387 48.4193 27.7517H50.7193H53.0193C53.0193 17.8168 44.972 9.72088 35.0556 9.72088V12.0209ZM50.7193 27.7517H48.4193C48.4193 35.1647 42.413 41.1826 35.0556 41.1826V43.4826V45.7826C44.972 45.7826 53.0193 37.6867 53.0193 27.7517H50.7193ZM35.0556 13.9491V11.6491C26.1978 11.6491 19.0122 18.8801 19.0122 27.7514H21.3122H23.6122C23.6122 21.402 28.7569 16.2491 35.0556 16.2491V13.9491ZM21.3122 27.7514H19.0122C19.0122 36.6228 26.1981 43.8537 35.0556 43.8537V41.5537V39.2537C28.7572 39.2537 23.6122 34.1008 23.6122 27.7514H21.3122ZM35.0556 41.5537V43.8537C43.913 43.8537 51.099 36.6228 51.099 27.7514H48.799H46.499C46.499 34.1008 41.3539 39.2537 35.0556 39.2537V41.5537ZM48.799 27.7514H51.099C51.099 18.8801 43.913 11.6491 35.0556 11.6491V13.9491V16.2491C41.3539 16.2491 46.499 21.402 46.499 27.7514H48.799Z" fill="#616161" mask="url(#path-1-inside-1_555_40699)"/>
</svg>
