<svg width="20" height="20" viewBox="0 0 20 20" fill="none" xmlns="http://www.w3.org/2000/svg">
<g clip-path="url(#clip0_489_2516)">
<path d="M10 0C15.5275 0 20 4.4725 20 10C20 15.5275 15.5275 20 10 20C4.4725 20 0 15.5275 0 10C0 4.4725 4.4725 0 10 0ZM10 18.7694C14.8244 18.7694 18.75 14.8238 18.75 10C18.75 5.17625 14.8244 1.25 10 1.25C5.17563 1.25 1.25 5.17563 1.25 10C1.25 14.8244 5.17563 18.7694 10 18.7694ZM9.31625 10.625H6.29167C5.93979 10.625 5.66667 10.3513 5.66667 10C5.66667 9.64875 5.94042 9.375 6.29167 9.375H13.7083C14.0602 9.375 14.3333 9.64875 14.3333 10C14.3333 10.3513 14.0596 10.625 13.7083 10.625H9.31625Z" fill="black"/>
</g>
<defs>
<clipPath id="clip0_489_2516">
<rect width="20" height="20" fill="white"/>
</clipPath>
</defs>
</svg>
