<svg width="58" height="46" viewBox="0 0 58 46" fill="none" xmlns="http://www.w3.org/2000/svg">
<path d="M54.1441 16.3994L55.2789 20.4111V22.2188L54.8834 21.1689L54.7408 20.7891L54.3443 20.7012L53.4205 20.4961L52.649 20.3242L52.5181 21.1035L52.3336 22.2012L52.1509 21.1045L52.0201 20.3242L51.2476 20.4961L50.3248 20.7012L49.9283 20.7891L49.7857 21.1689L49.3902 22.2178V20.4111L50.524 16.3994L52.3345 15.041L54.1441 16.3994Z" stroke="black" stroke-width="1.5"/>
<path d="M11.9175 40.2954H16.1333V44.2681H19.397L19.5864 44.1421L21.8481 42.6333L24.1108 44.1421L24.2993 44.2681H27.5639V40.2954H44.3921C44.1009 40.9808 43.9399 41.7347 43.9399 42.5249C43.9399 43.3153 44.1017 44.0689 44.3931 44.7544H11.9175C10.6891 44.7544 9.68807 43.7532 9.68797 42.5249C9.68797 41.2965 10.6891 40.2954 11.9175 40.2954ZM24.0776 32.3511V39.9292L22.2641 38.7212L21.8481 38.4438L21.4321 38.7212L19.6186 39.9292V32.3511H24.0776ZM11.9175 32.3511H16.1333V36.8091H11.9175C10.6891 36.8091 9.68797 35.808 9.68797 34.5796C9.68814 33.3514 10.6892 32.3511 11.9175 32.3511ZM44.3921 32.3511C44.101 33.0362 43.94 33.7896 43.9399 34.5796C43.9399 35.3698 44.1009 36.1237 44.3921 36.8091H27.5639V32.3511H44.3921ZM11.9175 24.4058H44.3921C44.1009 25.0911 43.9399 25.845 43.9399 26.6353C43.94 27.4257 44.1017 28.1792 44.3931 28.8647H11.9175C10.6891 28.8647 9.68807 27.8636 9.68797 26.6353C9.68797 25.4069 10.6891 24.4058 11.9175 24.4058Z" stroke="black" stroke-width="1.5"/>
<path d="M42.9463 21.3506H14.6533V12.4658L22.5332 14.2178H22.5342C24.5865 14.6735 26.6945 14.9053 28.7998 14.9053C30.642 14.9053 32.4866 14.7285 34.2939 14.3789L35.0664 14.2178L42.9463 12.4658V21.3506ZM28.7998 1.00195C30.4203 1.00195 32.0419 1.15806 33.6309 1.46582L34.3096 1.60645L55.0234 6.20996L34.3096 10.8145C30.9261 11.5667 27.3734 11.6134 23.9688 10.9551L23.29 10.8145L2.5752 6.20996L23.29 1.60645C25.0946 1.20522 26.9478 1.00197 28.7998 1.00195Z" stroke="black" stroke-width="1.5"/>
<line x1="52.4685" y1="7.27197" x2="52.4685" y2="14.6603" stroke="black" stroke-width="1.5"/>
</svg>
