<svg width="58" height="43" viewBox="0 0 58 43" fill="none" xmlns="http://www.w3.org/2000/svg">
<path d="M51.7147 16.4478L52.6737 19.8394V21.5317H52.5585L52.1757 20.5151L52.0731 20.2417L51.788 20.1792L51.0165 20.0073L50.4599 19.8833L50.3661 20.4448L50.1845 21.5317H50.0702L49.8876 20.4448L49.7938 19.8833L49.2382 20.0073L48.4657 20.1792L48.1806 20.2417L48.078 20.5151L47.6952 21.5317H47.58V19.8394L48.539 16.4478L50.1269 15.2563L51.7147 16.4478Z" stroke="black" stroke-width="1.08"/>
<line x1="50.1525" y1="8.88037" x2="50.1525" y2="15.0546" stroke="black" stroke-width="1.08"/>
<path d="M43.1562 19.2598H14.4433V11.9521L22.5791 13.7617C24.6166 14.2142 26.7097 14.4433 28.7998 14.4434C30.6286 14.4434 32.4598 14.2679 34.2539 13.9209L35.0205 13.7617L43.1562 11.9521V19.2598ZM28.7998 0.540039C30.4338 0.540039 32.0687 0.697487 33.6709 1.00781L34.3554 1.14941L55.9922 5.95801L45.8232 8.21875L34.3554 10.7676C30.9437 11.5261 27.3617 11.573 23.9287 10.9092L23.2441 10.7676L11.7773 8.21875L1.6074 5.95801L11.7763 3.69824L23.2441 1.14941C25.0636 0.744859 26.9325 0.540053 28.7998 0.540039Z" stroke="black" stroke-width="1.08"/>
<path d="M14.8747 38.0859H43.7429C43.4683 38.6466 43.3133 39.2694 43.3132 39.9268C43.3132 40.5843 43.4683 41.2077 43.7429 41.7686H14.8747C13.6688 41.7686 12.7819 40.8916 12.7819 39.9268C12.7822 38.9621 13.669 38.0859 14.8747 38.0859ZM14.8747 31.7314H18.7243V34.9082H21.4382L21.5681 34.8311L23.656 33.5703L25.7458 34.8311L25.8747 34.9082H28.5896V31.7314H43.7429C43.4684 32.2921 43.3132 32.9149 43.3132 33.5723C43.3132 34.2298 43.4682 34.8532 43.7429 35.4141H14.8747C13.6689 35.4141 12.7819 34.5371 12.7819 33.5723C12.7822 32.6076 13.669 31.7314 14.8747 31.7314ZM25.7497 25.377V31.6582L23.9362 30.5654L23.6569 30.3965L23.3767 30.5654L21.5632 31.6582V25.377H25.7497ZM14.8747 25.377H18.7243V29.0596H14.8747C13.6688 29.0596 12.7819 28.1826 12.7819 27.2178C12.7821 26.253 13.669 25.377 14.8747 25.377ZM43.7429 25.377C43.4684 25.9376 43.3132 26.5604 43.3132 27.2178C43.3132 27.8754 43.4682 28.4987 43.7429 29.0596H28.5896V25.377H43.7429ZM14.8747 19.0225H43.7429C43.4684 19.5831 43.3132 20.2059 43.3132 20.8633C43.3132 21.5209 43.4682 22.1442 43.7429 22.7051H14.8747C13.6688 22.7051 12.7819 21.8281 12.7819 20.8633C12.782 19.8985 13.6689 19.0225 14.8747 19.0225Z" stroke="black" stroke-width="1.08317"/>
</svg>
