<svg width="58" height="58" viewBox="0 0 58 58" fill="none" xmlns="http://www.w3.org/2000/svg">
<path d="M34.0205 15.8047H40.7393C41.7208 15.8048 42.5434 16.2858 42.9658 16.9424L42.9902 16.9795L43.0186 17.0146L50.1914 25.8154V25.8223L50.1895 25.8623C50.1893 25.8681 50.1895 25.8734 50.1895 25.8779L49.5098 34.54L49.5088 34.5488C49.4605 35.2697 48.746 35.9775 47.7168 35.9775L47.6055 35.9746H47.6035C46.5332 35.9168 45.8738 35.1204 45.9238 34.3701L45.9229 34.3691L46.5049 26.9639L46.5303 26.6426L46.3262 26.3926L44.7109 24.4111L43.2832 22.6582V54.4746C43.2832 55.3407 42.4635 56.1953 41.2656 56.1953C40.0686 56.1952 39.25 55.3408 39.25 54.4746V36.8867H35.5088V54.4746C35.5088 55.3407 34.6899 56.1952 33.4922 56.1953C32.3582 56.1953 31.5556 55.4204 31.4844 54.6025L31.3145 52.6562L30.0645 54.1572C28.8904 55.5663 27.228 56.0974 26.2158 56.1836L26.0225 56.1953H15.4268C15.3839 56.1953 15.3564 56.1808 15.3418 56.1709C15.3505 55.4956 15.6342 55.0155 16.0752 54.6445C16.4884 54.297 17.0443 54.0457 17.6357 53.8828L17.8916 53.8184L18.9287 53.5791L18.416 52.6465C17.866 51.6459 17.8086 50.7842 17.8613 50.2178L17.9346 49.4365L17.1553 49.3438L17.0947 49.3369L16.627 49.2812L16.3496 49.6621L11.6113 56.1641L11.6104 56.165C11.6087 56.1668 11.6026 56.173 11.5889 56.1797C11.5709 56.1884 11.5454 56.1953 11.5156 56.1953H8.61914C8.59732 56.1953 8.57812 56.1908 8.5625 56.1855C8.92244 55.6738 11.6336 51.8159 13.1475 49.5762L13.2861 49.3711L13.2852 49.124L13.2559 37.2686L13.2539 36.3945L12.3828 36.4688C12.2061 36.4838 12.0283 36.4912 11.8496 36.4912C9.74152 36.4912 7.82945 35.3989 6.82812 33.6641H6.83105L10.3301 32.4004L10.7422 32.252L10.8408 31.8252C10.9986 31.1421 11.599 30.5312 12.4521 30.3193L13.0039 30.1826L13.0586 29.6162L13.2422 27.7227L13.2793 27.7031C13.3145 27.6925 13.3473 27.6949 13.373 27.7012L13.4258 27.7256L14.2393 28.5293L15.1719 29.4502L15.5713 28.2012L16.0898 26.5752C16.0912 26.5739 16.0934 26.5716 16.0967 26.5693C16.1111 26.5593 16.1384 26.5472 16.1768 26.5459C16.218 26.5447 16.2484 26.556 16.2656 26.5664C16.2716 26.57 16.2746 26.5735 16.2764 26.5752L17.2188 28.8994L17.6338 29.9238L18.4814 29.2139C18.5905 29.1225 18.7119 29.0418 18.8457 28.9756L18.9844 28.9141L24.5137 26.7158L24.7295 26.6309L24.8662 26.4434L31.667 17.1484L31.6973 17.1074L31.7217 17.0625C32.1178 16.3458 32.9777 15.8047 34.0205 15.8047ZM30.0225 25.166L27.2207 28.9951L27.2197 28.9961C27.2187 28.9971 27.2168 28.9989 27.2139 29.001C27.2077 29.0053 27.197 29.0115 27.1816 29.0166L27.1553 29.0254L27.1289 29.0361C27.1184 29.0405 27.1086 29.0447 27.0996 29.0488L20.501 31.6729H20.5C20.2611 31.7678 20.0069 31.8164 19.7432 31.8164C19.7148 31.8164 19.6821 31.815 19.6348 31.8125L18.3721 31.7461L18.8467 32.918L21.1699 38.6553L21.3262 39.04L21.7314 39.1357C24.9883 39.9037 27.8188 41.7358 29.6064 44.1953L29.7764 44.4346V44.4355C29.8473 44.5383 29.9143 44.6438 29.9932 44.7676L31.4766 47.0967V23.1787L30.0225 25.166Z" stroke="#616161" stroke-width="1.60938"/>
<path d="M37.4807 2.80566C40.3066 2.80566 42.6075 5.10583 42.6077 7.93164C42.6077 10.7576 40.3067 13.0586 37.4807 13.0586C34.655 13.0585 32.3547 10.7576 32.3547 7.93164C32.3549 5.10588 34.6551 2.8058 37.4807 2.80566Z" stroke="#616161" stroke-width="1.60938"/>
</svg>
