<svg width="58" height="58" viewBox="0 0 58 58" fill="none" xmlns="http://www.w3.org/2000/svg">
<path d="M27.2579 29.3026C27.3241 27.6836 27.5035 26.157 27.7889 24.7699C27.4683 23.6037 25.5162 23.0735 25.1326 22.9213C23.6751 23.6198 22.1537 23.9728 20.5921 23.9728C14.2965 23.9728 9.49558 18.3044 9.29433 18.0632C9.0713 17.7957 8.9668 17.4319 9.00931 17.0704C9.05166 16.7091 9.23671 16.3873 9.51407 16.1924C13.4397 13.4347 16.8256 12.0365 19.5781 12.0365C24.1349 12.0365 26.3248 15.8241 26.9449 19.5554C27.4067 19.7984 27.9003 20.1283 28.3691 20.5525L28.3727 20.5458C27.6103 18.0966 26.6231 13.2184 29.0598 9.1191C31.3941 5.19157 36.1382 3.2002 43.1601 3.2002C44.5543 3.2002 46.0615 3.27945 47.6399 3.43574C48.0914 3.48065 48.5013 3.74585 48.7591 4.16001C49.0167 4.57399 49.0952 5.09382 48.9734 5.57863C48.9297 5.7523 47.8731 9.88222 45.2035 14.0458C41.6075 19.6543 37.2966 22.6408 31.7835 22.6936C31.0527 24.1408 29.5598 26.6692 30.3917 29.3026" stroke="#FFBC2C" stroke-width="2"/>
<path d="M16.474 37.8008H41.726C41.8173 37.8008 41.896 37.8293 41.9554 37.874L42.0082 37.9238C42.0706 37.9973 42.1141 38.1174 42.0951 38.2627L39.6097 53.2109L39.6078 53.2236L39.6058 53.2354C39.5599 53.5608 39.2626 53.8008 38.9886 53.8008H19.2113C18.9373 53.8008 18.64 53.5607 18.5941 53.2354L18.5922 53.2236L18.5902 53.2109L16.1039 38.2617C16.0851 38.1171 16.1294 37.9972 16.1918 37.9238C16.2532 37.8517 16.3525 37.8008 16.474 37.8008Z" stroke="#FFBC2C" stroke-width="2"/>
<path d="M14.5127 29.7466H43.6035C43.7892 29.7466 44.1162 29.9513 44.1162 30.4272V36.9712C44.1162 37.4467 43.7893 37.6519 43.6035 37.6519H14.5127C14.3268 37.6517 14 37.4464 14 36.9712V30.4272L14.0146 30.2612C14.0705 29.9547 14.2772 29.7955 14.4375 29.7563L14.5127 29.7466Z" stroke="#FFBC2C" stroke-width="2"/>
</svg>
