<svg width="58" height="59" viewBox="0 0 58 59" fill="none" xmlns="http://www.w3.org/2000/svg">
<path d="M27.2579 29.9027C27.3241 28.2837 27.5035 26.7571 27.7889 25.37C27.4683 24.2038 25.5162 23.6736 25.1326 23.5214C23.6751 24.2199 22.1537 24.5729 20.5921 24.5729C14.2965 24.5729 9.49558 18.9045 9.29433 18.6633C9.0713 18.3958 8.9668 18.032 9.00931 17.6705C9.05166 17.3092 9.23671 16.9874 9.51407 16.7925C13.4397 14.0348 16.8256 12.6365 19.5781 12.6365C24.1349 12.6365 26.3248 16.4242 26.9449 20.1555C27.4067 20.3985 27.9003 20.7284 28.3691 21.1526L28.3727 21.1459C27.6103 18.6967 26.6231 13.8185 29.0598 9.7192C31.3941 5.79167 36.1382 3.80029 43.1601 3.80029C44.5543 3.80029 46.0615 3.87955 47.6399 4.03584C48.0914 4.08075 48.5013 4.34594 48.7591 4.7601C49.0167 5.17409 49.0952 5.69392 48.9734 6.17873C48.9297 6.3524 47.8731 10.4823 45.2035 14.6459C41.6075 20.2544 37.2966 23.2409 31.7835 23.2937C31.0527 24.7409 29.5598 27.2693 30.3917 29.9027" stroke="black" stroke-width="2"/>
<path d="M16.474 38.4009H41.726C41.8173 38.4009 41.896 38.4294 41.9554 38.4741L42.0082 38.5239C42.0706 38.5974 42.1141 38.7175 42.0951 38.8628L39.6097 53.811L39.6078 53.8237L39.6058 53.8354C39.5599 54.1609 39.2626 54.4009 38.9886 54.4009H19.2113C18.9373 54.4009 18.64 54.1608 18.5941 53.8354L18.5922 53.8237L18.5902 53.811L16.1039 38.8618C16.0851 38.7172 16.1294 38.5973 16.1918 38.5239C16.2532 38.4518 16.3525 38.4009 16.474 38.4009Z" stroke="black" stroke-width="2"/>
<path d="M14.5127 30.3467H43.6035C43.7892 30.3467 44.1162 30.5514 44.1162 31.0273V37.5713C44.1162 38.0468 43.7893 38.252 43.6035 38.252H14.5127C14.3268 38.2518 14 38.0465 14 37.5713V31.0273L14.0146 30.8613C14.0705 30.5548 14.2772 30.3956 14.4375 30.3564L14.5127 30.3467Z" stroke="black" stroke-width="2"/>
</svg>
