<svg width="30" height="42" viewBox="0 0 30 42" fill="none" xmlns="http://www.w3.org/2000/svg">
<path d="M2.67309 38.67L0 8.68835H29.3724L26.6967 38.6653L14.6683 41.9998L2.67309 38.67Z" fill="#E44D26"/>
<path d="M14.6862 39.4508L24.4054 36.7561L26.6923 11.1399H14.6862V39.4508Z" fill="#F16529"/>
<path d="M14.6862 22.26H9.82027L9.48459 18.4941H14.6862V14.817H5.46582L5.55356 15.8038L6.45755 25.9368H14.6862V22.26ZM14.6862 31.8094L14.6699 31.8137L10.575 30.7077L10.3131 27.7753H6.62173L7.13688 33.5489L14.6693 35.6401L14.6862 35.6351V31.8094Z" fill="#EBEBEB"/>
<path d="M2.73285 0H4.60132V1.84654H6.31093V0H8.17973V5.59079H6.31093V3.71866H4.60165V5.59079H2.73285V0ZM10.6368 1.85418H8.99166V0H14.1514V1.85418H12.5056V5.59079H10.6368V1.85418ZM14.9703 0H16.9185L18.1173 1.96452L19.3148 0H21.264V5.59079H19.4025V2.81966L18.1173 4.80744H18.0848L16.7986 2.81966V5.59079H14.97V0H14.9703ZM22.1943 0H24.0634V3.74292H26.6913V5.59112H22.1943V0Z" fill="black"/>
<path d="M14.6736 22.26V25.9368H19.2015L18.7748 30.7057L14.6736 31.8127V35.6381L22.2119 33.5489L22.2671 32.9274L23.1312 23.2471L23.221 22.26H22.2299H14.6736ZM14.6736 14.817V18.4941H23.5556L23.6291 17.6676L23.7969 15.8038L23.885 14.817H14.6736Z" fill="white"/>
</svg>
