<svg width="42" height="41" viewBox="0 0 42 41" fill="none" xmlns="http://www.w3.org/2000/svg">
<path d="M7.4375 3.30467e-06H34.5625C35.5395 -0.000918617 36.5071 0.191064 37.4098 0.564962C38.3126 0.938861 39.1328 1.48734 39.8237 2.17899C40.5144 2.87067 41.0624 3.69193 41.4358 4.5958C41.8093 5.49969 42.0009 6.46843 42 7.44658V33.5534C42.0009 34.5316 41.8093 35.5004 41.4358 36.4041C41.0624 37.3081 40.5144 38.1293 39.8237 38.821C39.1328 39.5126 38.3126 40.0612 37.4098 40.4351C36.5071 40.809 35.5395 41.0009 34.5625 41H7.4375C6.46053 41.0009 5.49297 40.809 4.5902 40.4351C3.68743 40.0612 2.86717 39.5126 2.17634 38.821C1.48552 38.1293 0.937717 37.3081 0.564274 36.4041C0.190831 35.5004 -0.000917497 34.5316 3.30064e-06 33.5534V7.44658C-0.000917497 6.46843 0.190831 5.49969 0.564274 4.5958C0.937717 3.69193 1.48552 2.87067 2.17634 2.17899C2.86717 1.48734 3.68743 0.938861 4.5902 0.564962C5.49297 0.191064 6.46053 -0.000918617 7.4375 3.30467e-06Z" fill="#49021F"/>
<path d="M15.26 10.7229V28.6998C15.26 28.8925 15.1725 28.9801 15.015 28.9801H11.585C11.4275 28.9801 11.3575 28.8925 11.3575 28.6998V10.7229C11.3575 10.5652 11.445 10.4951 11.6025 10.4951H15.015C15.0415 10.4909 15.0686 10.4922 15.0946 10.4988C15.1207 10.5055 15.1451 10.5173 15.1664 10.5337C15.1876 10.5501 15.2054 10.5707 15.2185 10.5942C15.2315 10.6177 15.2397 10.6436 15.2425 10.6703C15.2491 10.6772 15.2541 10.6855 15.2571 10.6946C15.2601 10.7037 15.2611 10.7134 15.26 10.7229Z" fill="#FF3366"/>
<path d="M25.34 29.2605C24.0427 29.2818 22.7573 29.0124 21.5775 28.472C20.4799 27.9581 19.5599 27.1285 18.935 26.0891C18.2875 25.0203 17.9725 23.6887 17.9725 22.0942C17.9548 20.7976 18.2873 19.5202 18.935 18.3972C19.5991 17.2559 20.5609 16.317 21.7175 15.6814C22.9425 14.9981 24.4125 14.6652 26.145 14.6652C26.2676 14.6638 26.3905 14.6696 26.5125 14.6827C26.67 14.7002 26.845 14.7002 27.055 14.7177V9.18097C27.055 9.05832 27.1075 8.98824 27.23 8.98824H30.7825C30.8217 8.98293 30.8614 8.9926 30.8939 9.01533C30.9263 9.03805 30.9491 9.07217 30.9575 9.11089V25.8263C30.9575 26.1417 30.975 26.4921 30.9925 26.8776C31.01 27.263 31.045 27.5959 31.0625 27.8938C31.0661 27.953 31.0513 28.0119 31.0199 28.0622C30.9886 28.1125 30.9422 28.1515 30.8875 28.1741C29.9708 28.5598 29.0141 28.8419 28.035 29.0152C27.1456 29.1765 26.2438 29.2587 25.34 29.2605ZM27.055 25.7562V18.0468C26.8992 18.0091 26.7414 17.9799 26.5825 17.9592C26.39 17.9417 26.1975 17.9241 26.005 17.9241C25.319 17.9164 24.641 18.0725 24.0275 18.3797C23.4295 18.6781 22.9174 19.1243 22.54 19.6763C22.155 20.237 21.9625 20.9904 21.9625 21.9015C21.9472 22.5165 22.0482 23.1287 22.26 23.7062C22.4292 24.1731 22.698 24.5977 23.0475 24.9502C23.3849 25.2726 23.7921 25.5125 24.2375 25.6511C24.7063 25.8047 25.1966 25.8816 25.69 25.8788C25.9525 25.8788 26.1975 25.8613 26.425 25.8438C26.6388 25.8603 26.8537 25.8305 27.055 25.7562Z" fill="#FF3366"/>
</svg>
