<svg width="42" height="42" viewBox="0 0 42 42" fill="none" xmlns="http://www.w3.org/2000/svg">
<path d="M0 0H42V42.0003H0V0Z" fill="#F0DB4F"/>
<path d="M38.5627 31.9831C38.255 30.067 37.0056 28.4576 33.3046 26.9569C32.019 26.366 30.5857 25.943 30.1586 24.9687C30.0069 24.4016 29.9868 24.0822 30.0828 23.739C30.3582 22.6251 31.6878 22.2779 32.7416 22.5973C33.4204 22.8248 34.0629 23.3478 34.4504 24.1822C36.2628 23.0086 36.2591 23.0163 37.5246 22.2098C37.0613 21.4915 36.814 21.16 36.5107 20.8527C35.4207 19.6351 33.9354 19.0081 31.56 19.056L30.3226 19.2161C29.137 19.5157 28.007 20.138 27.3444 20.9724C25.3561 23.2284 25.9232 27.1766 28.3425 28.8015C30.7259 30.5904 34.2273 30.9974 34.6745 32.6702C35.1096 34.7181 33.1694 35.3811 31.2409 35.1456C29.8197 34.85 29.0293 34.1276 28.1747 32.8141C26.6019 33.7244 26.6019 33.7244 24.9847 34.6544C25.3682 35.4928 25.7712 35.8723 26.414 36.5986C29.4564 39.6846 37.0697 39.533 38.4352 34.8621C38.4905 34.7017 38.8583 33.6321 38.5627 31.9831ZM22.8325 19.3033H18.904L18.8879 29.4597C18.8879 31.6197 18.9996 33.5999 18.6484 34.2068C18.0736 35.4005 16.5843 35.2526 15.9056 35.0211C15.2148 34.6816 14.8635 34.1988 14.4566 33.5163C14.3448 33.3204 14.261 33.1688 14.2328 33.157L11.0388 35.113C11.5699 36.2031 12.3523 37.1492 13.3544 37.7638C14.8514 38.6623 16.8635 38.9378 18.9678 38.4547C20.3373 38.0557 21.519 37.2294 22.1376 35.9716C23.0321 34.3226 22.8402 32.3266 22.8321 30.119C22.8523 26.5173 22.8325 22.9164 22.8325 19.3033Z" fill="#323330"/>
</svg>
