<svg width="42" height="41" viewBox="0 0 42 41" fill="none" xmlns="http://www.w3.org/2000/svg">
<path d="M7.4375 3.30467e-06H34.5625C35.5395 -0.000918618 36.5071 0.191064 37.4097 0.564963C38.3126 0.938862 39.1328 1.48734 39.8237 2.179C40.5144 2.87067 41.0623 3.69193 41.4358 4.59581C41.8092 5.49968 42.0009 6.46842 42 7.44659V33.5534C42.0009 34.5316 41.8092 35.5004 41.4358 36.4042C41.0623 37.3081 40.5144 38.1293 39.8237 38.821C39.1328 39.5126 38.3126 40.0612 37.4097 40.4351C36.5071 40.809 35.5395 41.0009 34.5625 41H7.4375C6.46054 41.0009 5.49299 40.809 4.5902 40.4351C3.68742 40.0612 2.86716 39.5126 2.17633 38.821C1.48552 38.1293 0.937716 37.3081 0.564273 36.4042C0.19083 35.5004 -0.000917497 34.5316 3.30064e-06 33.5534V7.44659C-0.000917497 6.46842 0.19083 5.49968 0.564273 4.59581C0.937716 3.69193 1.48552 2.87067 2.17633 2.179C2.86716 1.48734 3.68742 0.938862 4.5902 0.564963C5.49299 0.191064 6.46054 -0.000918618 7.4375 3.30467e-06Z" fill="#001E36"/>
<path d="M22.0501 28.9804H10.9551C10.7626 28.9804 10.6751 28.8753 10.6751 28.6651V10.7582C10.6712 10.7294 10.6731 10.7001 10.6808 10.672C10.6884 10.6439 10.7016 10.6177 10.7195 10.5948C10.7375 10.5719 10.7598 10.5529 10.7853 10.5388C10.8107 10.5247 10.8387 10.5159 10.8676 10.5129H14.3676C14.3895 10.5089 14.412 10.5094 14.4337 10.5144C14.4554 10.5193 14.4758 10.5287 14.4938 10.5418C14.5118 10.5549 14.527 10.5715 14.5384 10.5906C14.5498 10.6098 14.5572 10.631 14.5601 10.6531V25.4236H22.6451C22.8201 25.4236 22.8726 25.5112 22.8376 25.6689L22.3301 28.7176C22.3273 28.7579 22.3166 28.7972 22.2986 28.8333C22.2806 28.8694 22.2556 28.9016 22.2251 28.9279C22.1738 28.9634 22.1126 28.9818 22.0501 28.9804Z" fill="#31A8FF"/>
<path d="M24.85 14.9633H27.9125C27.9954 14.9653 28.0756 14.9935 28.1416 15.0439C28.2075 15.0942 28.256 15.1642 28.28 15.2437C28.3524 15.3676 28.3999 15.5045 28.42 15.6467C28.455 15.8219 28.49 16.0146 28.5075 16.1898C28.525 16.3651 28.5425 16.5928 28.5425 16.8206C29.068 16.2064 29.7029 15.6955 30.415 15.3138C31.2146 14.8799 32.1134 14.6624 33.0225 14.683C33.0514 14.6791 33.0806 14.681 33.1086 14.6886C33.1366 14.6963 33.1628 14.7095 33.1858 14.7275C33.2085 14.7454 33.2276 14.7678 33.2416 14.7933C33.2558 14.8188 33.2645 14.8468 33.2675 14.8757V18.3625C33.2675 18.5027 33.18 18.5552 32.9875 18.5552C31.8533 18.4872 30.7193 18.6915 29.68 19.151C29.3254 19.3029 29.0045 19.5231 28.735 19.7992V28.7351C28.735 28.9104 28.665 28.9804 28.5075 28.9804H25.095C25.0628 28.9859 25.0297 28.9846 24.9979 28.9769C24.966 28.9692 24.9361 28.955 24.91 28.9354C24.8838 28.9158 24.8619 28.8909 24.8454 28.8625C24.8292 28.8341 24.8188 28.8028 24.815 28.7702V18.9933C24.815 18.5727 24.815 18.1347 24.7975 17.6792C24.78 17.2236 24.78 16.768 24.7625 16.3125C24.745 15.927 24.71 15.5415 24.6575 15.1561C24.6528 15.1354 24.6524 15.1139 24.6559 15.093C24.6596 15.0721 24.6673 15.0521 24.6788 15.0342C24.6902 15.0163 24.7049 15.0008 24.7222 14.9887C24.7397 14.9765 24.7593 14.9679 24.78 14.9633C24.7975 14.9458 24.815 14.9458 24.85 14.9633Z" fill="#31A8FF"/>
</svg>
