<svg width="42" height="41" viewBox="0 0 42 41" fill="none" xmlns="http://www.w3.org/2000/svg">
<path d="M7.4375 3.30467e-06H34.5625C35.5395 -0.000918618 36.5071 0.191064 37.4097 0.564963C38.3126 0.938862 39.1328 1.48734 39.8237 2.179C40.5144 2.87067 41.0623 3.69193 41.4358 4.59581C41.8092 5.49968 42.0009 6.46842 42 7.44659V33.5534C42.0009 34.5316 41.8092 35.5004 41.4358 36.4042C41.0623 37.3081 40.5144 38.1293 39.8237 38.821C39.1328 39.5126 38.3126 40.0612 37.4097 40.4351C36.5071 40.809 35.5395 41.0009 34.5625 41H7.4375C6.46053 41.0009 5.49297 40.809 4.5902 40.4351C3.68743 40.0612 2.86717 39.5126 2.17634 38.821C1.48552 38.1293 0.937716 37.3081 0.564273 36.4042C0.19083 35.5004 -0.000917496 34.5316 3.30064e-06 33.5534V7.44659C-0.000917496 6.46842 0.19083 5.49968 0.564273 4.59581C0.937716 3.69193 1.48552 2.87067 2.17634 2.179C2.86717 1.48734 3.68743 0.938862 4.5902 0.564963C5.49297 0.191064 6.46053 -0.000918618 7.4375 3.30467e-06Z" fill="#001E36"/>
<path d="M9.44995 28.7528V10.7233C9.44995 10.6006 9.50245 10.5305 9.62495 10.5305C9.92245 10.5305 10.2025 10.5305 10.605 10.513C11.0075 10.4955 11.4625 10.4955 11.935 10.478C12.4075 10.4605 12.915 10.4605 13.4575 10.4429C14 10.4254 14.525 10.4254 15.05 10.4254C16.485 10.4254 17.675 10.6006 18.6549 10.9686C19.5334 11.2673 20.3344 11.7581 20.9999 12.4053C21.5638 12.9718 21.9996 13.653 22.2775 14.4028C22.5424 15.133 22.6786 15.9037 22.68 16.6805C22.68 18.1874 22.3299 19.4314 21.6299 20.4126C20.9266 21.3924 19.9449 22.1374 18.8125 22.5502C17.6225 22.9882 16.31 23.1459 14.875 23.1459C14.455 23.1459 14.175 23.1459 14 23.1284C13.825 23.1109 13.58 23.1109 13.2475 23.1109V28.7352C13.2514 28.7642 13.2494 28.7934 13.2418 28.8214C13.2342 28.8495 13.221 28.8758 13.2031 28.8987C13.1851 28.9215 13.1627 28.9406 13.1373 28.9546C13.1119 28.9688 13.0839 28.9776 13.055 28.9805H9.65995C9.51995 28.9805 9.44995 28.9105 9.44995 28.7528ZM13.265 13.9122V19.7993C13.51 19.8169 13.7375 19.8344 13.9475 19.8344H14.875C15.5581 19.8353 16.2372 19.7287 16.8875 19.519C17.4453 19.3548 17.9437 19.0323 18.3224 18.5904C18.6899 18.1523 18.865 17.5566 18.865 16.7857C18.8814 16.2381 18.7418 15.6972 18.4625 15.2263C18.1707 14.7713 17.7415 14.4215 17.2375 14.2276C16.5805 13.9699 15.8775 13.8506 15.1725 13.8771C14.7175 13.8771 14.315 13.8771 13.9825 13.8946C13.7432 13.879 13.5031 13.8849 13.265 13.9122Z" fill="#31A8FF"/>
<path d="M33.6001 18.7305C33.0718 18.4519 32.5058 18.2512 31.9201 18.1347C31.2768 17.9888 30.6197 17.9126 29.9601 17.907C29.6059 17.8947 29.2519 17.936 28.9101 18.0296C28.6921 18.075 28.4989 18.1999 28.3676 18.38C28.2792 18.5221 28.2308 18.6856 28.2276 18.8531C28.2357 19.0197 28.2971 19.1795 28.4026 19.3087C28.5685 19.5035 28.7706 19.6642 28.9976 19.7817C29.4001 19.992 29.8201 20.1847 30.2401 20.3599C31.1856 20.6787 32.0902 21.1079 32.9351 21.639C33.5098 22.0008 33.9851 22.5007 34.3176 23.0933C34.5988 23.6522 34.7371 24.2723 34.7201 24.898C34.7343 25.7262 34.4963 26.539 34.0376 27.2283C33.5495 27.9278 32.8684 28.4697 32.0776 28.7877C31.2201 29.1557 30.1701 29.3484 28.9101 29.3484C28.1112 29.3516 27.3139 29.2753 26.5301 29.1206C25.9129 29.0139 25.3126 28.8252 24.7451 28.5599C24.684 28.5293 24.6333 28.4814 24.5992 28.4222C24.565 28.3632 24.5488 28.2952 24.5526 28.227V25.1783C24.551 25.1484 24.5566 25.1186 24.5689 25.0911C24.581 25.0637 24.5993 25.0396 24.6226 25.0206C24.6473 25.0063 24.6758 25.0001 24.7043 25.0033C24.7327 25.0064 24.7593 25.0187 24.7801 25.0381C25.4542 25.4361 26.1864 25.7257 26.9501 25.8967C27.6244 26.0724 28.3184 26.1607 29.0151 26.1595C29.6801 26.1595 30.1526 26.0719 30.4676 25.9142C30.6081 25.8492 30.7271 25.7455 30.811 25.6151C30.8946 25.4848 30.9394 25.3332 30.9401 25.1783C30.9401 24.933 30.8001 24.7052 30.5201 24.4775C30.2401 24.2497 29.6626 23.9869 28.8051 23.654C27.9254 23.3437 27.0901 22.9195 26.3201 22.3924C25.7717 22.0012 25.3174 21.4924 24.9901 20.9031C24.7108 20.3498 24.5726 19.7358 24.5876 19.1159C24.5902 18.3683 24.7959 17.6354 25.1826 16.9958C25.6271 16.2925 26.2653 15.7327 27.0201 15.3839C27.8426 14.9634 28.8751 14.7706 30.1176 14.7706C30.8439 14.7708 31.5691 14.8235 32.2876 14.9283C32.8042 14.9983 33.31 15.1337 33.7926 15.3313C33.8694 15.3586 33.9324 15.4153 33.9676 15.489C33.9877 15.5574 33.9995 15.628 34.0026 15.6993V18.5552C34.003 18.5892 33.9951 18.6229 33.9799 18.6534C33.9646 18.6839 33.9424 18.7103 33.9151 18.7305C33.8133 18.7671 33.702 18.7671 33.6001 18.7305Z" fill="#31A8FF"/>
</svg>
