<svg width="35" height="42" viewBox="0 0 35 42" fill="none" xmlns="http://www.w3.org/2000/svg">
<path d="M17.2167 18.5019C18.954 18.5019 20.3624 17.0936 20.3624 15.3563C20.3624 13.6189 18.954 12.2106 17.2167 12.2106C15.4794 12.2106 14.071 13.6189 14.071 15.3563C14.071 17.0936 15.4794 18.5019 17.2167 18.5019Z" fill="#61DAFB"/>
<path d="M17.2167 26.9243C19.6859 29.3259 22.1212 30.7465 24.0831 30.7465C24.7257 30.7465 25.3346 30.6112 25.8419 30.3068C27.6008 29.292 28.2435 26.7552 27.6346 23.136C27.5332 22.4933 27.3979 21.8506 27.2287 21.1742C27.9052 20.9712 28.5141 20.7683 29.1229 20.5653C32.5392 19.2462 34.4334 17.4196 34.4334 15.424C34.4334 13.3945 32.5392 11.568 29.1229 10.2827C28.5141 10.0459 27.9052 9.84294 27.2287 9.67381C27.3979 8.99732 27.5332 8.35466 27.6346 7.71199C28.2097 4.02512 27.567 1.45445 25.8081 0.439719C25.3007 0.135298 24.6919 0 24.0492 0C22.1212 0 19.652 1.42063 17.1829 3.82217C14.7475 1.42063 12.3121 0 10.3503 0C9.70764 0 9.0988 0.135298 8.59143 0.439719C6.83255 1.45445 6.18989 3.99129 6.79873 7.61052C6.9002 8.25318 7.0355 8.89585 7.20462 9.57234C6.52813 9.77529 5.91929 9.97823 5.31045 10.1812C1.89417 11.5003 0 13.3269 0 15.3225C0 17.352 1.89417 19.1785 5.31045 20.4638C5.91929 20.7006 6.52813 20.9036 7.20462 21.0727C7.0355 21.7492 6.9002 22.3918 6.79873 23.0345C6.22371 26.6537 6.86638 29.2244 8.59143 30.2053C9.0988 30.5097 9.70764 30.645 10.3503 30.645C12.3121 30.7127 14.7475 29.292 17.2167 26.9243ZM15.3225 22.358C15.9314 22.3918 16.574 22.3918 17.2167 22.3918C17.8593 22.3918 18.502 22.3918 19.1109 22.358C18.502 23.1698 17.8593 23.9139 17.2167 24.6243C16.574 23.9139 15.9314 23.1698 15.3225 22.358ZM11.1283 18.8741C11.4665 19.4491 11.7709 19.9903 12.143 20.5315C11.0944 20.3962 10.1135 20.2271 9.16645 20.0241C9.47087 19.1109 9.80911 18.1638 10.215 17.2167C10.4856 17.7579 10.79 18.3329 11.1283 18.8741ZM9.16645 10.7224C10.1135 10.5194 11.0944 10.3503 12.143 10.215C11.8048 10.7562 11.4665 11.2974 11.1283 11.8724C10.79 12.4474 10.4856 12.9886 10.215 13.5636C9.77529 12.5827 9.43704 11.6356 9.16645 10.7224ZM11.0268 15.3563C11.4665 14.4431 11.9401 13.5298 12.4812 12.6165C12.9886 11.7371 13.5636 10.8577 14.1387 9.97823C15.1534 9.91059 16.1681 9.87676 17.2167 9.87676C18.2991 9.87676 19.3138 9.91059 20.2947 9.97823C20.9036 10.8577 21.4447 11.7371 21.9521 12.6165C22.4933 13.5298 22.9669 14.4431 23.4066 15.3563C22.9669 16.2696 22.4933 17.1829 21.9521 18.0961C21.4447 18.9756 20.8697 19.855 20.2947 20.7344C19.28 20.8021 18.2652 20.8359 17.2167 20.8359C16.1343 20.8359 15.1196 20.8021 14.1387 20.7344C13.5298 19.855 12.9886 18.9756 12.4812 18.0961C11.9401 17.1829 11.4665 16.2696 11.0268 15.3563ZM24.2522 13.5298L23.3389 11.8386C23.0007 11.2636 22.6963 10.7224 22.3242 10.1812C23.3727 10.3165 24.3537 10.4856 25.3007 10.6885C24.9963 11.6356 24.6581 12.5827 24.2522 13.5298ZM24.2522 17.1829C24.6581 18.1299 24.9963 19.077 25.3007 19.9903C24.3537 20.1932 23.3727 20.3624 22.3242 20.4977C22.6624 19.9565 23.0007 19.4153 23.3389 18.8403C23.6433 18.3329 23.9478 17.7579 24.2522 17.1829ZM25.0301 28.92C24.7595 29.0891 24.4213 29.1567 24.0492 29.1567C22.3918 29.1567 20.3285 27.8038 18.2991 25.7743C19.28 24.7257 20.2271 23.5419 21.1741 22.2227C22.7639 22.0874 24.286 21.8506 25.7066 21.5124C25.8758 22.1212 25.9772 22.7301 26.0787 23.3389C26.5522 26.214 26.1802 28.2773 25.0301 28.92ZM26.789 11.0944C30.5774 12.1768 32.8436 13.8342 32.8436 15.3563C32.8436 16.6755 31.2877 17.9946 28.5479 19.0432C28.0067 19.2462 27.3979 19.4491 26.789 19.6182C26.3493 18.2314 25.8081 16.8108 25.1316 15.3563C25.8081 13.9019 26.3831 12.4813 26.789 11.0944ZM24.0831 1.55593C24.4551 1.55593 24.7595 1.62358 25.064 1.7927C26.1802 2.43537 26.5861 4.46484 26.1125 7.37375C26.0111 7.94876 25.8758 8.5576 25.7405 9.20027C24.3198 8.89585 22.7977 8.65908 21.208 8.48996C20.2947 7.1708 19.3138 5.98694 18.3329 4.93838C20.3624 2.94273 22.4257 1.55593 24.0831 1.55593ZM19.1109 8.35466C18.502 8.32083 17.8593 8.32083 17.2167 8.32083C16.574 8.32083 15.9314 8.32083 15.3225 8.35466C15.9314 7.54287 16.574 6.79873 17.2167 6.08841C17.8593 6.79873 18.502 7.57669 19.1109 8.35466ZM9.40322 1.7927C9.67381 1.62358 10.0121 1.55593 10.3841 1.55593C12.0415 1.55593 14.1048 2.90891 16.1343 4.93838C15.1534 5.98694 14.2063 7.1708 13.2592 8.48996C11.6695 8.62525 10.1474 8.86202 8.72673 9.20027C8.5576 8.59143 8.45613 7.98259 8.35466 7.37375C7.88111 4.49866 8.25318 2.46919 9.40322 1.7927ZM7.64434 19.6182C3.856 18.5358 1.58975 16.8784 1.58975 15.3563C1.58975 14.0372 3.14568 12.718 5.88547 11.6695C6.42666 11.4665 7.0355 11.2636 7.64434 11.0944C8.08406 12.4813 8.62525 13.9019 9.30174 15.3563C8.62525 16.8108 8.05024 18.2652 7.64434 19.6182ZM8.35466 23.3389C8.45613 22.7639 8.59143 22.1551 8.72673 21.5124C10.1474 21.8168 11.6695 22.0536 13.2592 22.2227C14.1725 23.5419 15.1534 24.7257 16.1343 25.7743C14.1048 27.7699 12.0415 29.1567 10.3841 29.1567C10.0121 29.1567 9.70764 29.0891 9.40322 28.92C8.25318 28.2773 7.88111 26.214 8.35466 23.3389ZM6.93403 37.2746C7.67817 36.3614 7.71199 35.3466 7.3061 34.3319C6.9002 33.3172 6.05459 32.8436 5.00603 32.8098C3.75452 32.776 2.46919 32.8098 1.21768 32.8098H0.980911V41.5703H1.99565V38.2555H3.5854C3.78835 38.2555 3.95747 38.3232 4.05894 38.4923L6.08841 41.638C6.12224 41.7056 6.22371 41.8071 6.29136 41.8071H7.61052C6.79873 40.5556 6.02076 39.3717 5.20898 38.1541C5.91929 38.0526 6.52813 37.8158 6.93403 37.2746ZM1.99565 37.207V33.8583H2.36772C3.14568 33.8583 3.95747 33.8245 4.73543 33.8922C5.6487 33.926 6.29136 34.6363 6.29136 35.5496C6.29136 36.4628 5.54722 37.1732 4.63396 37.207C3.82217 37.2408 3.01038 37.207 1.99565 37.207ZM15.0857 37.6467C14.5445 35.279 12.3798 34.6701 10.7224 35.4143C9.43704 35.9893 8.86202 37.1055 8.8282 38.4923C8.79438 39.5409 9.0988 40.488 9.91059 41.1983C10.8238 42.0101 11.9401 42.1115 13.0901 41.9086C13.7328 41.7733 14.3078 41.4689 14.7475 40.9953C14.5784 40.7586 14.4092 40.5218 14.2401 40.3188C13.293 41.1306 12.2445 41.4012 11.0944 40.86C10.3503 40.488 9.97823 39.5747 9.91059 38.8982H15.1534V38.4585C15.1872 38.1541 15.1534 37.8835 15.0857 37.6467ZM9.97823 38.1879C9.87676 37.1732 10.8915 36.0908 12.0077 36.0908C13.293 36.0569 14.1048 36.8349 14.1387 38.1879H9.97823ZM20.3624 35.2452C19.855 35.1437 19.3138 35.1099 18.8064 35.1437C17.9946 35.2113 17.2843 35.5834 16.7093 36.1922C16.8784 36.429 17.0137 36.6658 17.2167 36.9364C17.2843 36.8687 17.352 36.8011 17.4196 36.7673C17.9608 36.2599 18.6035 35.9893 19.3815 36.0569C19.9903 36.0908 20.5653 36.2937 20.7344 36.9026C20.8697 37.3761 20.8359 37.8835 20.8697 38.3908C20.7683 38.3908 20.7344 38.357 20.7006 38.3232C19.8888 37.6467 18.9756 37.5114 17.9946 37.7482C17.0814 37.9849 16.5064 38.6953 16.4387 39.6085C16.3711 40.6571 16.8446 41.435 17.7579 41.8071C18.3329 42.0439 18.9756 42.0439 19.5844 41.9086C20.0579 41.8071 20.2609 41.5365 20.9374 41.1644V41.6042H21.8845C21.8845 40.2512 21.9183 38.5938 21.8845 37.0379C21.8845 36.0569 21.3094 35.4481 20.3624 35.2452ZM20.8359 39.507C20.8021 39.6085 20.8359 39.71 20.8359 39.8115C20.8359 40.5218 20.6668 40.7586 19.9903 41.0291C19.5167 41.1983 19.0094 41.2659 18.502 41.0968C17.927 40.9277 17.5211 40.4203 17.5211 39.8453C17.4873 39.2703 17.8593 38.6953 18.4344 38.5261C19.2123 38.2555 19.9226 38.4247 20.5653 38.8982C20.7683 39.0673 20.9036 39.2364 20.8359 39.507ZM26.1125 36.1584C26.992 35.8878 27.8038 36.0569 28.4126 36.8011L28.5141 36.8687C28.7508 36.6658 28.9538 36.4628 29.2244 36.2261C29.1229 36.1246 29.0891 36.0569 29.0214 35.9555C28.0405 34.9069 26.1125 34.7716 24.9287 35.6172C23.2713 36.8349 23.3051 39.2026 24.1169 40.4541C24.8948 41.638 26.0111 42.0439 27.3302 41.8748C28.1082 41.7733 28.7508 41.4012 29.2582 40.7586C29.0214 40.5556 28.7847 40.3527 28.5479 40.1159C28.4802 40.1835 28.4464 40.2174 28.4126 40.285C27.4993 41.2997 25.9772 41.1983 25.1654 40.1159C24.6919 39.4732 24.5904 38.7291 24.7257 37.9849C24.7934 37.1393 25.2331 36.4628 26.1125 36.1584ZM33.148 40.7586C33.0804 40.7924 33.0466 40.8262 33.0466 40.8262C32.776 41.0291 32.5054 41.063 32.2009 40.9615C31.8965 40.8262 31.8627 40.5556 31.8289 40.285V36.429C31.8289 36.3614 31.8289 36.4967 31.8627 36.1584H33.148V35.1437H31.7951V33.4525H30.7803V35.279H29.9009C29.8332 35.279 29.7318 35.3466 29.7318 35.4143C29.6979 35.6511 29.7318 35.8202 29.7318 36.1584H30.8141V40.488C30.8141 41.0291 30.9494 41.5027 31.423 41.7733C31.9303 42.0777 32.9113 42.0101 33.351 41.638C33.4186 41.6042 33.4525 41.4689 33.4525 41.435C33.351 41.2321 33.2495 40.9953 33.148 40.7586Z" fill="#61DAFB"/>
</svg>
