<svg width="42" height="31" viewBox="0 0 42 31" fill="none" xmlns="http://www.w3.org/2000/svg">
<path d="M36.1612 17.8358C34.8423 17.8375 33.5412 18.1346 32.3561 18.7046C31.985 18.098 31.6985 17.445 31.5041 16.7631C31.3925 16.2286 31.3667 15.6801 31.4276 15.1377C31.5558 14.5409 31.7222 13.9526 31.9256 13.3764C31.9181 13.3011 31.8341 12.945 30.9897 12.9332C30.1453 12.9213 29.4179 13.0913 29.3399 13.3114C29.1932 13.7135 29.0754 14.1253 28.9874 14.5437C28.2885 16.2423 27.4283 17.8719 26.4182 19.4109C25.8522 18.4969 25.6194 17.4201 25.7582 16.3582C25.8864 15.7614 26.0527 15.1731 26.2562 14.5969C26.2487 14.5216 26.1647 14.1655 25.3203 14.1536C24.4759 14.1418 23.7484 14.3118 23.6704 14.5319C23.5924 14.7521 23.4935 15.2707 23.318 15.7642C23.1425 16.2577 21.0937 20.7674 20.5568 21.9302C20.2808 22.5213 20.0423 23.003 19.8743 23.3281C19.8664 23.3492 19.8563 23.3695 19.8443 23.3886C19.6943 23.6679 19.6149 23.8201 19.6149 23.8201V23.8275C19.4994 24.0314 19.3764 24.2205 19.3149 24.2205C19.2076 23.7984 19.2128 23.3561 19.3299 22.9365C19.6299 21.3717 20.3648 18.9396 20.3573 18.8554C20.3573 18.8096 20.4953 18.387 19.8818 18.1683C19.7396 18.1016 19.5798 18.08 19.4245 18.1064C19.2693 18.1329 19.1262 18.2061 19.0149 18.316C18.9609 18.316 18.9234 18.4446 18.9234 18.4446C18.9234 18.4446 19.5909 15.7096 17.6501 15.7096C16.8943 15.8593 16.1765 16.1565 15.539 16.5836C14.9015 17.0106 14.3572 17.559 13.9379 18.1964C13.416 18.4756 12.3046 19.0726 11.1152 19.7153C10.6653 19.965 10.1943 20.2148 9.75786 20.4541C9.72786 20.4246 9.69637 20.3862 9.66637 20.3566C7.30411 17.8772 2.96206 16.1277 3.14954 12.8105C3.21853 11.6018 3.63999 8.42796 11.4872 4.5729C17.9455 1.43744 23.0855 2.30627 23.9749 4.23306C25.2483 6.98434 21.2212 12.0924 14.5484 12.8327C13.8102 12.9802 13.0477 12.9624 12.3174 12.7806C11.5872 12.5987 10.9077 12.2575 10.3293 11.7821C9.97684 11.4038 9.92285 11.3817 9.79236 11.457C9.57788 11.5708 9.71587 11.9107 9.79236 12.1072C10.0469 12.561 10.3912 12.96 10.805 13.2805C11.2187 13.6011 11.6934 13.8367 12.2011 13.9734C14.8262 14.5322 17.5631 14.265 20.0258 13.2095C24.0754 11.6683 27.2251 7.38329 26.3012 3.79421C25.3728 0.151931 19.2369 -1.04936 13.4295 0.986774C9.79198 2.1926 6.43095 4.09195 3.538 6.57652C0.338826 9.52433 -0.166623 12.085 0.0403557 13.1592C0.790279 16.9685 6.11623 19.4464 8.24752 21.286C8.13953 21.3466 8.04054 21.3998 7.95655 21.4441C6.89016 21.9657 2.82557 24.0595 1.80717 26.2729C0.656793 28.7848 1.99166 30.5801 2.87357 30.8224C4.20244 31.1358 5.59748 31.0326 6.86392 30.5272C8.13037 30.0217 9.20502 29.1393 9.93784 28.0032C10.5619 27.0608 10.9455 25.9838 11.0559 24.8638C11.1664 23.7439 11.0005 22.6143 10.5723 21.5712C10.565 21.5543 10.5549 21.5388 10.5423 21.5254L11.3777 21.0422C11.9221 20.7245 12.4591 20.4305 12.9195 20.1882C12.6073 21.0754 12.424 22.0016 12.3751 22.9394C12.2691 24.3768 12.7156 25.8009 13.626 26.929C13.7645 27.0464 13.9253 27.1357 14.0991 27.1915C14.2729 27.2473 14.4562 27.2685 14.6384 27.254C15.5383 27.254 15.9507 26.5152 16.4022 25.6375C16.9541 24.5648 17.4521 23.3177 17.4521 23.3177C17.4521 23.3177 16.8311 26.6881 18.5185 26.6881C19.1319 26.6881 19.7528 25.902 20.0303 25.506V25.5134C20.0303 25.5134 20.0453 25.4913 20.0768 25.4381L20.1758 25.28V25.2652C20.4218 24.8426 20.9737 23.8821 21.7941 22.2878C22.853 20.2325 23.8729 17.6629 23.8729 17.6629C23.9713 18.2276 24.1071 18.7854 24.2794 19.3326C24.5264 19.996 24.8185 20.6422 25.1538 21.2668C24.9078 21.6066 24.7548 21.7958 24.7548 21.7958L24.7623 21.8032C24.5628 22.0603 24.3484 22.3395 24.1099 22.6114C23.4004 23.3799 22.7421 24.1928 22.1391 25.045C22.0495 25.1882 22.0187 25.3596 22.053 25.5243C22.0873 25.6891 22.184 25.8347 22.3236 25.9316C22.6393 26.0934 22.9992 26.1519 23.351 26.0985C23.8811 26.0691 24.4024 25.9517 24.8928 25.7513C25.3668 25.587 25.8139 25.3555 26.2202 25.0642C26.639 24.7784 26.9761 24.3912 27.1991 23.9399C27.4221 23.4886 27.5235 22.9884 27.4935 22.4873C27.4464 21.8561 27.2827 21.2387 27.0106 20.6654C27.0871 20.559 27.1606 20.4541 27.2326 20.3477C28.0853 19.0938 28.8539 17.7863 29.5333 16.4336C29.6317 16.9983 29.7675 17.556 29.9398 18.1033C30.1435 18.6765 30.3944 19.2324 30.6897 19.7656C29.7087 20.5091 28.9361 21.4864 28.4445 22.6055C27.9615 23.9811 28.3365 24.6003 29.0444 24.7436C29.4318 24.7699 29.8191 24.6917 30.1648 24.5175C30.673 24.353 31.1518 24.1106 31.5836 23.7994C32.0389 23.5347 32.4203 23.1626 32.6933 22.7167C32.9664 22.2707 33.1226 21.7649 33.148 21.2446C33.1139 20.7254 32.9949 20.2149 32.7955 19.7331C34.09 19.2348 35.4936 19.076 36.8691 19.272C40.5197 19.6946 41.2411 21.9391 41.1032 22.8848C41.0384 23.22 40.9016 23.5377 40.7019 23.8166C40.5022 24.0954 40.2442 24.3288 39.9453 24.5013C39.6918 24.6594 39.6078 24.7126 39.6303 24.8263C39.6603 24.9933 39.7803 24.9844 39.9978 24.9549C40.548 24.7864 41.0334 24.4576 41.3901 24.0118C41.7467 23.566 41.9578 23.0242 41.9956 22.4577C42.1111 20.2414 39.9633 17.8107 36.1657 17.8329L36.1612 17.8358ZM7.99404 27.1861C6.78217 28.4863 5.09484 28.9769 4.36591 28.5617C3.58299 28.1184 3.89046 26.1975 5.37831 24.8204C6.26089 24.0377 7.21483 23.3368 8.22802 22.7267C8.405 22.6203 8.66597 22.4696 8.97794 22.2834L9.06193 22.2376L9.24641 22.1238C9.51223 23.0012 9.53633 23.9325 9.31625 24.8221C9.09617 25.7116 8.63983 26.5276 7.99404 27.1861ZM16.8146 21.2757C16.3932 22.2878 15.5113 24.881 14.9743 24.7362C14.5139 24.615 14.2244 22.6498 14.8828 20.7083C15.2153 19.7736 15.6995 18.8983 16.3167 18.1166C16.9766 17.3911 17.7055 17.1487 17.881 17.4443C17.7209 18.7665 17.3615 20.0579 16.8146 21.2757ZM24.0934 24.7067C23.9164 24.7968 23.7484 24.8544 23.6719 24.813C23.6179 24.7835 23.7484 24.6653 23.7484 24.6653C23.7484 24.6653 24.6618 23.6975 25.0218 23.2601C25.2288 23.003 25.4718 22.7016 25.7357 22.3602V22.4577C25.7357 23.6132 24.6003 24.3919 24.0949 24.7096L24.0934 24.7067ZM29.7088 23.4448C29.5783 23.3546 29.6008 23.0517 30.0388 22.1076C30.3433 21.5012 30.7687 20.9614 31.2897 20.5206C31.3695 20.7443 31.4111 20.9795 31.4126 21.2166C31.4186 21.7212 31.2548 22.2136 30.9468 22.617C30.6389 23.0203 30.2041 23.3119 29.7103 23.4463L29.7088 23.4448Z" fill="#CD6799"/>
</svg>
