<svg width="42" height="42" viewBox="0 0 42 42" fill="none" xmlns="http://www.w3.org/2000/svg">
<path d="M23.1258 33.7172C23.1635 29.8622 22.1861 26.7273 20.9429 26.7151C19.6997 26.703 18.6612 29.8183 18.6236 33.6732C18.5859 37.5282 19.5632 40.6632 20.8064 40.6753C22.0497 40.6874 23.0881 37.5722 23.1258 33.7172Z" stroke="black" stroke-width="1.3" stroke-miterlimit="10"/>
<path d="M15.9155 32.8416C18.0315 29.619 18.9043 26.4534 17.8651 25.771C16.8258 25.0886 14.2679 27.1478 12.1519 30.3703C10.0359 33.5929 9.16303 36.7584 10.2023 37.4409C11.2416 38.1234 13.7994 36.0642 15.9155 32.8416Z" stroke="black" stroke-width="1.3" stroke-miterlimit="10"/>
<path d="M10.3145 28.218C13.837 26.6513 16.2828 24.4602 15.7775 23.3242C15.2722 22.1882 12.0071 22.5375 8.48466 24.1043C4.96223 25.6711 2.51638 27.8621 3.02168 28.9981C3.52698 30.1342 6.79209 29.7849 10.3145 28.218Z" stroke="black" stroke-width="1.3" stroke-miterlimit="10"/>
<path d="M15.3548 20.1385C15.5439 18.9097 12.6084 17.4381 8.79816 16.8516C4.98782 16.2651 1.74564 16.7859 1.5565 18.0147C1.36737 19.2436 4.3029 20.7151 8.1132 21.3016C11.9235 21.8881 15.1657 21.3673 15.3548 20.1385Z" stroke="black" stroke-width="1.3" stroke-miterlimit="10"/>
<path d="M16.7225 17.2112C17.5459 16.2796 15.8716 13.4548 12.9829 10.9018C10.0943 8.34878 7.08506 7.03439 6.26171 7.966C5.43836 8.89762 7.11265 11.7225 10.0014 14.2755C12.89 16.8285 15.8993 18.1428 16.7225 17.2112Z" stroke="black" stroke-width="1.3" stroke-miterlimit="10"/>
<path d="M19.4472 15.5005C20.6435 15.162 20.7624 11.8804 19.7127 8.17087C18.6631 4.46136 16.8423 1.72864 15.646 2.06716C14.4496 2.40569 14.3308 5.68727 15.3804 9.39682C16.4301 13.1063 18.2509 15.839 19.4472 15.5005Z" stroke="black" stroke-width="1.3" stroke-miterlimit="10"/>
<path d="M26.845 9.51227C27.9677 5.82417 27.9136 2.54088 26.7241 2.17883C25.5347 1.81677 23.6604 4.51305 22.5377 8.20115C21.4152 11.8892 21.4693 15.1725 22.6587 15.5346C23.8481 15.8966 25.7224 13.2004 26.845 9.51227Z" stroke="black" stroke-width="1.3" stroke-miterlimit="10"/>
<path d="M32.1312 14.4957C35.0693 11.9996 36.7985 9.20806 35.9935 8.26056C35.1885 7.31304 32.1542 8.5684 29.2162 11.0644C26.2781 13.5604 24.549 16.352 25.3539 17.2995C26.1589 18.247 29.1932 16.9918 32.1312 14.4957Z" stroke="black" stroke-width="1.3" stroke-miterlimit="10"/>
<path d="M33.8791 21.5475C37.7003 21.0363 40.6642 19.6229 40.4993 18.3906C40.3345 17.1583 37.1032 16.5737 33.282 17.0849C29.461 17.5961 26.4969 19.0095 26.6618 20.2418C26.8267 21.4741 30.058 22.0588 33.8791 21.5475Z" stroke="black" stroke-width="1.3" stroke-miterlimit="10"/>
<path d="M38.8083 29.3505C39.3359 28.2248 36.9338 25.9859 33.4429 24.3499C29.9521 22.7139 26.6945 22.3004 26.1669 23.4262C25.6393 24.552 28.0414 26.7909 31.5323 28.4269C35.0231 30.0628 38.2807 30.4764 38.8083 29.3505Z" stroke="black" stroke-width="1.3" stroke-miterlimit="10"/>
<path d="M31.4655 37.6572C32.518 36.9954 31.7078 33.8132 29.6557 30.5495C27.6037 27.2859 25.0869 25.1767 24.0344 25.8385C22.9818 26.5002 23.7921 29.6825 25.8441 32.9461C27.8962 36.2098 30.413 38.319 31.4655 37.6572Z" stroke="black" stroke-width="1.3" stroke-miterlimit="10"/>
</svg>
