<svg width="126" height="126" viewBox="0 0 126 126" fill="none" xmlns="http://www.w3.org/2000/svg">
<path d="M69.3777 101.151C69.4909 89.5863 66.5588 80.1817 62.8292 80.1451C59.0994 80.1088 55.9842 89.4545 55.8713 101.019C55.7581 112.584 58.6901 121.989 62.4197 122.026C66.1496 122.062 69.2648 112.716 69.3777 101.151Z" fill="#FFBC2C" stroke="#FFBC2C" stroke-width="2.52" stroke-miterlimit="10"/>
<path d="M47.7464 98.525C54.0945 88.8572 56.713 79.3604 53.5953 77.3131C50.4773 75.2659 42.8036 81.4434 36.4558 91.1111C30.1076 100.779 27.4891 110.275 30.6068 112.323C33.7248 114.37 41.3982 108.193 47.7464 98.525Z" fill="#FFBC2C" stroke="#FFBC2C" stroke-width="2.52" stroke-miterlimit="10"/>
<path d="M30.9435 84.6542C41.5109 79.9539 48.8484 73.3808 47.3324 69.9727C45.8166 66.5647 36.0213 67.6125 25.454 72.313C14.8867 77.0134 7.54914 83.5865 9.06505 86.9946C10.5809 90.4026 20.3763 89.3548 30.9435 84.6542Z" fill="#FFBC2C" stroke="#FFBC2C" stroke-width="2.52" stroke-miterlimit="10"/>
<path d="M46.0641 60.4157C46.6316 56.7292 37.8249 52.3144 26.3942 50.555C14.9632 48.7955 5.23666 50.3579 4.66926 54.0444C4.10186 57.7309 12.9084 62.1455 24.3394 63.9049C35.7701 65.6644 45.4968 64.102 46.0641 60.4157Z" fill="#FFBC2C" stroke="#FFBC2C" stroke-width="2.52" stroke-miterlimit="10"/>
<path d="M50.1682 51.6334C52.6383 48.8388 47.6154 40.3643 38.9494 32.7052C30.2833 25.0462 21.2557 21.103 18.7857 23.8979C16.3156 26.6927 21.3385 35.1673 30.0046 42.8263C38.6707 50.4853 47.6983 54.4284 50.1682 51.6334Z" fill="#FFBC2C" stroke="#FFBC2C" stroke-width="2.52" stroke-miterlimit="10"/>
<path d="M58.3415 46.5009C61.9305 45.4854 62.2871 35.6405 59.1381 24.512C55.9891 13.3835 50.5268 5.1853 46.9378 6.20088C43.3488 7.21647 42.9922 17.0612 46.1412 28.1898C49.2902 39.3182 54.7525 47.5165 58.3415 46.5009Z" fill="#FFBC2C" stroke="#FFBC2C" stroke-width="2.52" stroke-miterlimit="10"/>
<path d="M80.5352 28.5361C83.9032 17.4718 83.7409 7.6219 80.1725 6.53575C76.6042 5.44958 70.9813 13.5384 67.6134 24.6027C64.2456 35.6669 64.4079 45.5169 67.9763 46.603C71.5446 47.6891 77.1674 39.6004 80.5352 28.5361Z" fill="#FFBC2C" stroke="#FFBC2C" stroke-width="2.52" stroke-miterlimit="10"/>
<path d="M96.3934 43.4863C105.208 35.9982 110.395 27.6234 107.98 24.781C105.565 21.9384 96.4622 25.7045 87.6483 33.1924C78.8341 40.6806 73.6467 49.0553 76.0616 51.8979C78.4765 54.7404 87.5795 50.9745 96.3934 43.4863Z" fill="#FFBC2C" stroke="#FFBC2C" stroke-width="2.52" stroke-miterlimit="10"/>
<path d="M101.637 64.6429C113.101 63.1092 121.993 58.869 121.498 55.172C121.003 51.4751 111.309 49.7214 99.846 51.2549C88.3828 52.7885 79.4907 57.0287 79.9854 60.7258C80.4801 64.4226 90.1737 66.1765 101.637 64.6429Z" fill="#FFBC2C" stroke="#FFBC2C" stroke-width="2.52" stroke-miterlimit="10"/>
<path d="M116.425 88.0512C118.008 84.6739 110.801 77.9574 100.329 73.0494C89.8565 68.1414 80.0836 66.9009 78.5008 70.2782C76.918 73.6557 84.1245 80.3723 94.5971 85.2802C105.069 90.1879 114.842 91.4288 116.425 88.0512Z" fill="#FFBC2C" stroke="#FFBC2C" stroke-width="2.52" stroke-miterlimit="10"/>
<path d="M94.3965 112.971C97.554 110.986 95.1232 101.439 88.9671 91.6482C82.811 81.8573 75.2606 75.5298 72.103 77.5151C68.9455 79.5003 71.3763 89.0471 77.5324 98.838C83.6885 108.629 91.2389 114.957 94.3965 112.971Z" fill="#FFBC2C" stroke="#FFBC2C" stroke-width="2.52" stroke-miterlimit="10"/>
</svg>
